<svg width="583" height="577" viewBox="0 0 583 577" fill="none" xmlns="http://www.w3.org/2000/svg">
<path d="M487.87 161.306C487.87 161.306 491.996 149.394 504.379 149.088C516.76 148.783 512.315 156.419 525.332 155.196C538.348 153.975 533.587 139.314 553.906 136.259C574.226 133.206 582.796 161.306 582.796 161.306H487.87Z" fill="white"/>
<path d="M273.188 18.8773C273.188 18.8773 276.271 9.98132 285.517 9.75332C294.764 9.52532 291.444 15.228 301.165 14.3147C310.885 13.4027 307.329 2.45465 322.503 0.173321C337.677 -2.10801 344.077 18.8773 344.077 18.8773H273.188Z" fill="white"/>
<path d="M0 108.608C0 108.608 2.75467 100.659 11.0187 100.455C19.2813 100.251 16.3147 105.347 25.0027 104.531C33.6893 103.716 30.5107 93.9324 44.072 91.8924C57.6333 89.8551 63.3533 108.608 63.3533 108.608H0Z" fill="white"/>
<path d="M321.18 576.577H132.144C111.181 576.577 94.1876 559.584 94.1876 538.62V95.1145C94.1876 74.1519 111.181 57.1585 132.144 57.1585H321.18C342.144 57.1585 359.137 74.1519 359.137 95.1145V538.62C359.137 559.584 342.144 576.577 321.18 576.577Z" fill="#E3EEFE"/>
<path d="M321.18 57.1579H132.144C111.181 57.1579 94.1876 74.1512 94.1876 95.1139V538.621C94.1876 559.583 111.181 576.577 132.144 576.577H321.18C342.144 576.577 359.137 559.583 359.137 538.621V95.1139C359.137 74.1512 342.144 57.1579 321.18 57.1579ZM321.18 70.1552C334.942 70.1552 346.14 81.3526 346.14 95.1139V538.621C346.14 552.383 334.942 563.579 321.18 563.579H132.144C118.381 563.579 107.184 552.383 107.184 538.621V95.1139C107.184 81.3526 118.381 70.1552 132.144 70.1552H321.18Z" fill="#010000"/>
<path d="M285.803 58.4696H167.521V72.2283C167.521 78.3256 172.464 83.2683 178.561 83.2683H274.763C280.859 83.2683 285.803 78.3256 285.803 72.2283V58.4696Z" fill="#010000"/>
<path d="M204.645 68.7783H250.001" stroke="white" stroke-width="1.01867" stroke-miterlimit="10" stroke-linecap="round" stroke-linejoin="round"/>
<path d="M273.898 519.506H138.802C132.966 519.506 128.234 514.774 128.234 508.938V396.104C128.234 390.268 132.966 385.536 138.802 385.536H273.898C279.734 385.536 284.466 390.268 284.466 396.104V508.938C284.466 514.774 279.734 519.506 273.898 519.506Z" fill="#8CBEFB"/>
<path d="M185.337 443.733H154.293C151.972 443.733 150.089 441.852 150.089 439.532V408.485C150.089 406.165 151.972 404.284 154.293 404.284H185.337C187.659 404.284 189.54 406.165 189.54 408.485V439.532C189.54 441.852 187.659 443.733 185.337 443.733Z" fill="white"/>
<path d="M203.005 416.729H238.663" stroke="black" stroke-width="1.73333" stroke-miterlimit="10" stroke-linecap="round" stroke-linejoin="round"/>
<path d="M203.005 429.426H260.505" stroke="black" stroke-width="1.73333" stroke-miterlimit="10" stroke-linecap="round" stroke-linejoin="round"/>
<path d="M150.09 460.156H189.539" stroke="white" stroke-width="1.73333" stroke-miterlimit="10" stroke-linecap="round" stroke-linejoin="round"/>
<path d="M150.09 473.266H260.506" stroke="white" stroke-width="1.73333" stroke-miterlimit="10" stroke-linecap="round" stroke-linejoin="round"/>
<path d="M150.09 487.709H260.506" stroke="white" stroke-width="1.73333" stroke-miterlimit="10" stroke-linecap="round" stroke-linejoin="round"/>
<path d="M70.5723 185.642C70.5723 203.116 56.4056 217.283 38.9309 217.283C21.4563 217.283 7.28961 203.116 7.28961 185.642C7.28961 168.167 21.4563 154 38.9309 154C56.4056 154 70.5723 168.167 70.5723 185.642Z" fill="#00CFA8"/>
<path d="M26.1848 187.148L36.1155 194.505L53.1301 176.849" stroke="white" stroke-width="2.848" stroke-miterlimit="10" stroke-linecap="round" stroke-linejoin="round"/>
<path d="M162.531 357.111H56.5859C52.7672 357.111 49.6712 354.016 49.6712 350.198V276.382C49.6712 272.563 52.7672 269.468 56.5859 269.468H162.531C166.349 269.468 169.445 272.563 169.445 276.382V350.198C169.445 354.016 166.349 357.111 162.531 357.111Z" fill="#007AFE"/>
<path d="M109.1 314.394C104.501 314.394 100.772 310.666 100.772 306.067C100.772 301.468 104.501 297.739 109.1 297.739C113.698 297.739 117.428 301.468 117.428 306.067C117.428 310.666 113.698 314.394 109.1 314.394ZM128.021 306.155C128.021 295.704 119.55 287.234 109.1 287.234C98.6489 287.234 90.1769 295.704 90.1769 306.155C90.1769 309.647 91.1396 312.907 92.7889 315.715H92.7783L92.8329 315.786C93.5583 317.008 94.4129 318.143 95.3863 319.168L109.1 337.334L122.8 319.184C123.784 318.148 124.646 317.003 125.378 315.766L125.417 315.715H125.409C127.06 312.907 128.021 309.647 128.021 306.155Z" fill="white"/>
<path d="M317.974 256.563H135.269C129.431 256.563 124.699 251.831 124.699 245.995V133.161C124.699 127.325 129.431 122.593 135.269 122.593H317.974C323.81 122.593 328.542 127.325 328.542 133.161V245.995C328.542 251.831 323.81 256.563 317.974 256.563Z" fill="white"/>
<path d="M172.367 189.128H145.145C143.111 189.128 141.46 187.479 141.46 185.443V158.221C141.46 156.187 143.111 154.537 145.145 154.537H172.367C174.401 154.537 176.052 156.187 176.052 158.221V185.443C176.052 187.479 174.401 189.128 172.367 189.128Z" fill="#8CBEFB"/>
<path d="M216.434 189.128H189.212C187.178 189.128 185.527 187.479 185.527 185.443V158.221C185.527 156.187 187.178 154.537 189.212 154.537H216.434C218.468 154.537 220.119 156.187 220.119 158.221V185.443C220.119 187.479 218.468 189.128 216.434 189.128Z" fill="#8CBEFB"/>
<path d="M260.501 189.128H233.279C231.245 189.128 229.594 187.479 229.594 185.443V158.221C229.594 156.187 231.245 154.537 233.279 154.537H260.501C262.535 154.537 264.186 156.187 264.186 158.221V185.443C264.186 187.479 262.535 189.128 260.501 189.128Z" fill="#8CBEFB"/>
<path d="M304.568 189.128H277.346C275.312 189.128 273.661 187.479 273.661 185.443V158.221C273.661 156.187 275.312 154.537 277.346 154.537H304.568C306.602 154.537 308.253 156.187 308.253 158.221V185.443C308.253 187.479 306.602 189.128 304.568 189.128Z" fill="#03EE7A"/>
<path d="M172.367 235.789H145.145C143.111 235.789 141.46 234.139 141.46 232.103V204.882C141.46 202.847 143.111 201.198 145.145 201.198H172.367C174.401 201.198 176.052 202.847 176.052 204.882V232.103C176.052 234.139 174.401 235.789 172.367 235.789Z" fill="#8CBEFB"/>
<path d="M216.434 235.789H189.212C187.178 235.789 185.527 234.139 185.527 232.103V204.882C185.527 202.847 187.178 201.198 189.212 201.198H216.434C218.468 201.198 220.119 202.847 220.119 204.882V232.103C220.119 234.139 218.468 235.789 216.434 235.789Z" fill="#8CBEFB"/>
<path d="M260.501 235.789H233.279C231.245 235.789 229.594 234.139 229.594 232.103V204.882C229.594 202.847 231.245 201.198 233.279 201.198H260.501C262.535 201.198 264.186 202.847 264.186 204.882V232.103C264.186 234.139 262.535 235.789 260.501 235.789Z" fill="#8CBEFB"/>
<path d="M304.568 235.789H277.346C275.312 235.789 273.661 234.139 273.661 232.103V204.882C273.661 202.847 275.312 201.198 277.346 201.198H304.568C306.602 201.198 308.253 202.847 308.253 204.882V232.103C308.253 234.139 306.602 235.789 304.568 235.789Z" fill="#8CBEFB"/>
</svg>
