<svg width="583" height="578" viewBox="0 0 583 578" fill="none" xmlns="http://www.w3.org/2000/svg">
<path d="M487.87 161.306C487.87 161.306 491.996 149.394 504.379 149.088C516.76 148.783 512.315 156.419 525.332 155.196C538.348 153.975 533.587 139.314 553.906 136.259C574.226 133.206 582.796 161.306 582.796 161.306H487.87Z" fill="white"/>
<path d="M273.188 18.8773C273.188 18.8773 276.271 9.98132 285.517 9.75332C294.764 9.52532 291.444 15.228 301.165 14.3147C310.885 13.4027 307.329 2.45465 322.503 0.173321C337.677 -2.10801 344.077 18.8773 344.077 18.8773H273.188Z" fill="white"/>
<path d="M0 108.608C0 108.608 2.75467 100.659 11.0187 100.455C19.2813 100.251 16.3147 105.347 25.0027 104.531C33.6893 103.716 30.5107 93.9324 44.072 91.8924C57.6333 89.8551 63.3533 108.608 63.3533 108.608H0Z" fill="white"/>
<path d="M321.18 576.577H132.144C111.181 576.577 94.1876 559.584 94.1876 538.62V95.1145C94.1876 74.1519 111.181 57.1585 132.144 57.1585H321.18C342.144 57.1585 359.137 74.1519 359.137 95.1145V538.62C359.137 559.584 342.144 576.577 321.18 576.577Z" fill="#E3EEFE"/>
<path d="M321.18 57.1579H132.144C111.181 57.1579 94.1876 74.1512 94.1876 95.1139V538.621C94.1876 559.583 111.181 576.577 132.144 576.577H321.18C342.144 576.577 359.137 559.583 359.137 538.621V95.1139C359.137 74.1512 342.144 57.1579 321.18 57.1579ZM321.18 70.1552C334.942 70.1552 346.14 81.3526 346.14 95.1139V538.621C346.14 552.383 334.942 563.579 321.18 563.579H132.144C118.381 563.579 107.184 552.383 107.184 538.621V95.1139C107.184 81.3526 118.381 70.1552 132.144 70.1552H321.18Z" fill="#010000"/>
<path d="M285.803 58.4696H167.521V72.2283C167.521 78.3256 172.464 83.2683 178.561 83.2683H274.763C280.859 83.2683 285.803 78.3256 285.803 72.2283V58.4696Z" fill="#010000"/>
<path d="M204.645 68.7783H250.001" stroke="white" stroke-width="1.01867" stroke-miterlimit="10" stroke-linecap="round" stroke-linejoin="round"/>
<path d="M273.898 519.506H138.802C132.966 519.506 128.234 514.774 128.234 508.938V396.104C128.234 390.268 132.966 385.536 138.802 385.536H273.898C279.734 385.536 284.466 390.268 284.466 396.104V508.938C284.466 514.774 279.734 519.506 273.898 519.506Z" fill="#8CBEFB"/>
<path d="M185.337 443.733H154.293C151.972 443.733 150.089 441.852 150.089 439.532V408.485C150.089 406.165 151.972 404.284 154.293 404.284H185.337C187.659 404.284 189.54 406.165 189.54 408.485V439.532C189.54 441.852 187.659 443.733 185.337 443.733Z" fill="white"/>
<path d="M203.005 416.729H238.663" stroke="black" stroke-width="1.73333" stroke-miterlimit="10" stroke-linecap="round" stroke-linejoin="round"/>
<path d="M203.005 429.426H260.505" stroke="black" stroke-width="1.73333" stroke-miterlimit="10" stroke-linecap="round" stroke-linejoin="round"/>
<path d="M150.09 460.156H189.539" stroke="white" stroke-width="1.73333" stroke-miterlimit="10" stroke-linecap="round" stroke-linejoin="round"/>
<path d="M150.09 473.266H260.506" stroke="white" stroke-width="1.73333" stroke-miterlimit="10" stroke-linecap="round" stroke-linejoin="round"/>
<path d="M150.09 487.709H260.506" stroke="white" stroke-width="1.73333" stroke-miterlimit="10" stroke-linecap="round" stroke-linejoin="round"/>
<path d="M70.5723 185.642C70.5723 203.116 56.4056 217.283 38.9309 217.283C21.4563 217.283 7.28961 203.116 7.28961 185.642C7.28961 168.167 21.4563 154 38.9309 154C56.4056 154 70.5723 168.167 70.5723 185.642Z" fill="#00CFA8"/>
<path d="M26.1848 187.148L36.1155 194.505L53.1301 176.849" stroke="white" stroke-width="2.848" stroke-miterlimit="10" stroke-linecap="round" stroke-linejoin="round"/>
<path d="M162.531 357.111H56.5859C52.7672 357.111 49.6712 354.016 49.6712 350.198V276.382C49.6712 272.563 52.7672 269.468 56.5859 269.468H162.531C166.349 269.468 169.445 272.563 169.445 276.382V350.198C169.445 354.016 166.349 357.111 162.531 357.111Z" fill="#007AFE"/>
<path d="M109.1 314.394C104.501 314.394 100.772 310.666 100.772 306.067C100.772 301.468 104.501 297.739 109.1 297.739C113.698 297.739 117.428 301.468 117.428 306.067C117.428 310.666 113.698 314.394 109.1 314.394ZM128.021 306.155C128.021 295.704 119.55 287.234 109.1 287.234C98.6489 287.234 90.1769 295.704 90.1769 306.155C90.1769 309.647 91.1396 312.907 92.7889 315.715H92.7783L92.8329 315.786C93.5583 317.008 94.4129 318.143 95.3863 319.168L109.1 337.334L122.8 319.184C123.784 318.148 124.646 317.003 125.378 315.766L125.417 315.715H125.409C127.06 312.907 128.021 309.647 128.021 306.155Z" fill="white"/>
<path d="M317.974 256.563H135.269C129.431 256.563 124.699 251.831 124.699 245.995V133.161C124.699 127.325 129.431 122.593 135.269 122.593H317.974C323.81 122.593 328.542 127.325 328.542 133.161V245.995C328.542 251.831 323.81 256.563 317.974 256.563Z" fill="white"/>
<path d="M172.367 189.128H145.145C143.111 189.128 141.46 187.479 141.46 185.443V158.221C141.46 156.187 143.111 154.537 145.145 154.537H172.367C174.401 154.537 176.052 156.187 176.052 158.221V185.443C176.052 187.479 174.401 189.128 172.367 189.128Z" fill="#8CBEFB"/>
<path d="M216.434 189.128H189.212C187.178 189.128 185.527 187.479 185.527 185.443V158.221C185.527 156.187 187.178 154.537 189.212 154.537H216.434C218.468 154.537 220.119 156.187 220.119 158.221V185.443C220.119 187.479 218.468 189.128 216.434 189.128Z" fill="#8CBEFB"/>
<path d="M260.501 189.128H233.279C231.245 189.128 229.594 187.479 229.594 185.443V158.221C229.594 156.187 231.245 154.537 233.279 154.537H260.501C262.535 154.537 264.186 156.187 264.186 158.221V185.443C264.186 187.479 262.535 189.128 260.501 189.128Z" fill="#8CBEFB"/>
<path d="M304.568 189.128H277.346C275.312 189.128 273.661 187.479 273.661 185.443V158.221C273.661 156.187 275.312 154.537 277.346 154.537H304.568C306.602 154.537 308.253 156.187 308.253 158.221V185.443C308.253 187.479 306.602 189.128 304.568 189.128Z" fill="#03EE7A"/>
<path d="M172.367 235.789H145.145C143.111 235.789 141.46 234.139 141.46 232.103V204.882C141.46 202.847 143.111 201.198 145.145 201.198H172.367C174.401 201.198 176.052 202.847 176.052 204.882V232.103C176.052 234.139 174.401 235.789 172.367 235.789Z" fill="#8CBEFB"/>
<path d="M216.434 235.789H189.212C187.178 235.789 185.527 234.139 185.527 232.103V204.882C185.527 202.847 187.178 201.198 189.212 201.198H216.434C218.468 201.198 220.119 202.847 220.119 204.882V232.103C220.119 234.139 218.468 235.789 216.434 235.789Z" fill="#8CBEFB"/>
<path d="M260.501 235.789H233.279C231.245 235.789 229.594 234.139 229.594 232.103V204.882C229.594 202.847 231.245 201.198 233.279 201.198H260.501C262.535 201.198 264.186 202.847 264.186 204.882V232.103C264.186 234.139 262.535 235.789 260.501 235.789Z" fill="#8CBEFB"/>
<path d="M304.568 235.789H277.346C275.312 235.789 273.661 234.139 273.661 232.103V204.882C273.661 202.847 275.312 201.198 277.346 201.198H304.568C306.602 201.198 308.253 202.847 308.253 204.882V232.103C308.253 234.139 306.602 235.789 304.568 235.789Z" fill="#8CBEFB"/>
<path d="M147.306 145.665C146.341 145.665 145.495 145.435 144.766 144.976C144.043 144.517 143.477 143.874 143.068 143.049C142.665 142.223 142.463 141.258 142.463 140.154C142.463 139.04 142.665 138.068 143.068 137.238C143.477 136.408 144.043 135.763 144.766 135.304C145.495 134.844 146.341 134.615 147.306 134.615C148.271 134.615 149.116 134.844 149.839 135.304C150.568 135.763 151.134 136.408 151.537 137.238C151.945 138.068 152.15 139.04 152.15 140.154C152.15 141.258 151.945 142.223 151.537 143.049C151.134 143.874 150.568 144.517 149.839 144.976C149.116 145.435 148.271 145.665 147.306 145.665ZM147.306 144.19C148.039 144.19 148.642 144.002 149.116 143.626C149.589 143.25 149.939 142.756 150.166 142.144C150.394 141.532 150.507 140.868 150.507 140.154C150.507 139.439 150.394 138.774 150.166 138.157C149.939 137.54 149.589 137.041 149.116 136.66C148.642 136.28 148.039 136.09 147.306 136.09C146.573 136.09 145.97 136.28 145.497 136.66C145.024 137.041 144.674 137.54 144.446 138.157C144.219 138.774 144.105 139.439 144.105 140.154C144.105 140.868 144.219 141.532 144.446 142.144C144.674 142.756 145.024 143.25 145.497 143.626C145.97 144.002 146.573 144.19 147.306 144.19ZM158.999 145.665C157.997 145.665 157.134 145.428 156.41 144.955C155.686 144.482 155.13 143.83 154.74 143C154.35 142.169 154.155 141.221 154.155 140.154C154.155 139.068 154.355 138.11 154.754 137.28C155.157 136.445 155.719 135.793 156.438 135.324C157.162 134.851 158.006 134.615 158.971 134.615C159.722 134.615 160.4 134.754 161.003 135.032C161.606 135.31 162.1 135.7 162.485 136.201C162.87 136.702 163.109 137.287 163.202 137.955H161.559C161.434 137.468 161.156 137.036 160.724 136.66C160.298 136.28 159.722 136.09 158.999 136.09C158.358 136.09 157.797 136.257 157.315 136.591C156.837 136.92 156.463 137.387 156.194 137.99C155.93 138.588 155.798 139.291 155.798 140.098C155.798 140.924 155.928 141.643 156.187 142.255C156.452 142.868 156.823 143.343 157.301 143.682C157.783 144.02 158.349 144.19 158.999 144.19C159.425 144.19 159.813 144.116 160.161 143.967C160.509 143.819 160.803 143.605 161.044 143.327C161.286 143.049 161.457 142.715 161.559 142.325H163.202C163.109 142.956 162.879 143.524 162.513 144.03C162.151 144.531 161.671 144.93 161.072 145.227C160.479 145.519 159.787 145.665 158.999 145.665ZM170.251 134.754V136.146H164.712V134.754H170.251ZM166.326 132.193H167.968V142.381C167.968 142.844 168.036 143.192 168.17 143.424C168.309 143.652 168.486 143.805 168.699 143.884C168.917 143.958 169.147 143.995 169.388 143.995C169.569 143.995 169.717 143.986 169.833 143.967C169.949 143.944 170.042 143.925 170.112 143.911L170.446 145.387C170.334 145.428 170.179 145.47 169.979 145.512C169.78 145.558 169.527 145.582 169.221 145.582C168.757 145.582 168.302 145.482 167.857 145.282C167.416 145.083 167.05 144.779 166.758 144.371C166.47 143.962 166.326 143.448 166.326 142.826V132.193ZM176.949 145.665C175.984 145.665 175.137 145.435 174.409 144.976C173.685 144.517 173.119 143.874 172.711 143.049C172.307 142.223 172.105 141.258 172.105 140.154C172.105 139.04 172.307 138.068 172.711 137.238C173.119 136.408 173.685 135.763 174.409 135.304C175.137 134.844 175.984 134.615 176.949 134.615C177.914 134.615 178.758 134.844 179.482 135.304C180.21 135.763 180.776 136.408 181.18 137.238C181.588 138.068 181.792 139.04 181.792 140.154C181.792 141.258 181.588 142.223 181.18 143.049C180.776 143.874 180.21 144.517 179.482 144.976C178.758 145.435 177.914 145.665 176.949 145.665ZM176.949 144.19C177.682 144.19 178.285 144.002 178.758 143.626C179.231 143.25 179.581 142.756 179.809 142.144C180.036 141.532 180.15 140.868 180.15 140.154C180.15 139.439 180.036 138.774 179.809 138.157C179.581 137.54 179.231 137.041 178.758 136.66C178.285 136.28 177.682 136.09 176.949 136.09C176.216 136.09 175.613 136.28 175.139 136.66C174.666 137.041 174.316 137.54 174.089 138.157C173.861 138.774 173.748 139.439 173.748 140.154C173.748 140.868 173.861 141.532 174.089 142.144C174.316 142.756 174.666 143.25 175.139 143.626C175.613 144.002 176.216 144.19 176.949 144.19ZM184.521 145.442V131.191H186.164V136.452H186.303C186.423 136.266 186.591 136.03 186.804 135.742C187.022 135.45 187.333 135.19 187.736 134.963C188.145 134.731 188.697 134.615 189.393 134.615C190.293 134.615 191.086 134.84 191.772 135.29C192.459 135.74 192.995 136.378 193.38 137.203C193.765 138.029 193.957 139.003 193.957 140.126C193.957 141.258 193.765 142.239 193.38 143.069C192.995 143.895 192.461 144.535 191.779 144.99C191.097 145.44 190.311 145.665 189.42 145.665C188.734 145.665 188.184 145.551 187.771 145.324C187.358 145.092 187.04 144.83 186.818 144.538C186.595 144.241 186.423 143.995 186.303 143.8H186.108V145.442H184.521ZM186.136 140.098C186.136 140.905 186.254 141.617 186.491 142.234C186.727 142.847 187.073 143.327 187.528 143.675C187.982 144.018 188.539 144.19 189.198 144.19C189.884 144.19 190.457 144.009 190.917 143.647C191.38 143.281 191.728 142.789 191.96 142.172C192.197 141.55 192.315 140.859 192.315 140.098C192.315 139.347 192.199 138.669 191.967 138.066C191.74 137.458 191.394 136.978 190.93 136.626C190.471 136.268 189.894 136.09 189.198 136.09C188.53 136.09 187.968 136.259 187.514 136.598C187.059 136.932 186.716 137.4 186.484 138.004C186.252 138.602 186.136 139.3 186.136 140.098ZM200.951 145.665C199.921 145.665 199.033 145.438 198.286 144.983C197.544 144.524 196.971 143.884 196.567 143.063C196.168 142.237 195.969 141.276 195.969 140.182C195.969 139.087 196.168 138.122 196.567 137.287C196.971 136.447 197.532 135.793 198.251 135.324C198.975 134.851 199.819 134.615 200.784 134.615C201.341 134.615 201.89 134.707 202.433 134.893C202.976 135.079 203.47 135.38 203.915 135.798C204.361 136.21 204.716 136.758 204.98 137.44C205.244 138.122 205.377 138.962 205.377 139.959V140.655H197.138V139.235H203.707C203.707 138.632 203.586 138.094 203.345 137.621C203.108 137.148 202.77 136.774 202.329 136.5C201.893 136.227 201.378 136.09 200.784 136.09C200.13 136.09 199.564 136.252 199.086 136.577C198.613 136.897 198.249 137.315 197.994 137.83C197.738 138.344 197.611 138.897 197.611 139.486V140.432C197.611 141.239 197.75 141.924 198.028 142.485C198.311 143.042 198.703 143.466 199.204 143.758C199.705 144.046 200.288 144.19 200.951 144.19C201.382 144.19 201.772 144.13 202.12 144.009C202.473 143.884 202.776 143.698 203.032 143.452C203.287 143.202 203.484 142.891 203.623 142.52L205.21 142.965C205.043 143.503 204.762 143.976 204.368 144.385C203.973 144.788 203.486 145.104 202.906 145.331C202.326 145.554 201.675 145.665 200.951 145.665ZM207.875 145.442V134.754H209.461V136.368H209.573C209.768 135.839 210.12 135.41 210.631 135.081C211.141 134.751 211.716 134.587 212.356 134.587C212.477 134.587 212.628 134.589 212.809 134.594C212.99 134.598 213.126 134.605 213.219 134.615V136.285C213.163 136.271 213.036 136.25 212.836 136.222C212.642 136.19 212.435 136.173 212.217 136.173C211.698 136.173 211.234 136.282 210.825 136.5C210.422 136.714 210.102 137.011 209.865 137.391C209.633 137.767 209.517 138.196 209.517 138.679V145.442H207.875Z" fill="#00CFA8"/>
<path d="M321.628 357.111H202.1C198.282 357.111 195.186 354.017 195.186 350.198V276.382C195.186 272.563 198.282 269.469 202.1 269.469H321.628C325.446 269.469 328.542 272.563 328.542 276.382V350.198C328.542 354.017 325.446 357.111 321.628 357.111Z" fill="white"/>
<path d="M310.41 299.335H215.677C213.642 299.335 211.993 297.686 211.993 295.65V283.095C211.993 281.06 213.642 279.411 215.677 279.411H310.41C312.445 279.411 314.096 281.06 314.096 283.095V295.65C314.096 297.686 312.445 299.335 310.41 299.335Z" fill="#8CBEFB"/>
<path d="M213.326 312.385H259.856" stroke="black" stroke-width="1.73333" stroke-miterlimit="10" stroke-linecap="round" stroke-linejoin="round"/>
<path d="M213.326 323.717H312.762" stroke="black" stroke-width="1.73333" stroke-miterlimit="10" stroke-linecap="round" stroke-linejoin="round"/>
<path d="M213.326 336.214H312.762" stroke="black" stroke-width="1.73333" stroke-miterlimit="10" stroke-linecap="round" stroke-linejoin="round"/>
<path d="M385.724 490.984H316.44C311.792 490.984 308.024 487.216 308.024 482.568V422.476C308.024 417.828 311.792 414.06 316.44 414.06H385.724C390.372 414.06 394.14 417.828 394.14 422.476V482.568C394.14 487.216 390.372 490.984 385.724 490.984Z" fill="#00CFA8"/>
<path d="M351.078 460.017C346.928 460.017 343.562 456.655 343.562 452.503C343.562 448.353 346.928 444.989 351.078 444.989C355.228 444.989 358.593 448.353 358.593 452.503V452.545C358.569 456.679 355.213 460.019 351.078 460.017ZM368.144 449.169L365.314 448.673C364.984 447.44 364.493 446.256 363.854 445.151L365.504 442.799C366.109 441.935 366.008 440.76 365.261 440.015L363.566 438.321C362.809 437.588 361.636 437.504 360.782 438.121L358.43 439.771C357.325 439.133 356.141 438.643 354.908 438.312L354.421 435.419C354.244 434.392 353.362 433.636 352.322 433.616H349.88C348.821 433.615 347.914 434.376 347.734 435.419L347.24 438.239C346.006 438.571 344.822 439.06 343.717 439.7L341.374 438.121C340.509 437.516 339.334 437.619 338.589 438.365L336.894 440.059C336.149 440.805 336.046 441.98 336.652 442.844L338.301 445.196C337.662 446.301 337.172 447.487 336.841 448.719L334.021 449.213C332.978 449.395 332.217 450.3 332.218 451.359V453.756C332.217 454.815 332.978 455.72 334.021 455.9L336.841 456.396C337.172 457.629 337.662 458.813 338.301 459.919L336.652 462.271C336.046 463.135 336.149 464.309 336.894 465.055L338.589 466.749C339.334 467.496 340.509 467.599 341.374 466.992L343.725 465.343C344.83 465.981 346.016 466.472 347.248 466.804L347.744 469.624C347.924 470.667 348.829 471.428 349.888 471.427H352.322C353.381 471.428 354.285 470.667 354.466 469.624L354.961 466.804C356.194 466.472 357.38 465.983 358.485 465.343L360.782 466.956C361.646 467.563 362.821 467.46 363.566 466.712L365.261 465.019C366.008 464.273 366.109 463.099 365.504 462.235L363.854 459.865C364.493 458.76 364.984 457.575 365.314 456.341L368.144 455.847C369.188 455.665 369.948 454.76 369.945 453.701V451.305C369.944 450.249 369.184 449.349 368.144 449.169Z" fill="white"/>
<path d="M19.625 576.577H566.212" stroke="black" stroke-miterlimit="10"/>
<path d="M466.38 82.6497H520.126C533.41 82.6497 544.182 71.879 544.182 58.5923C544.182 45.307 533.41 34.5363 520.126 34.5363H466.38C453.094 34.5363 442.323 45.307 442.323 58.5923C442.323 71.879 453.094 82.6497 466.38 82.6497Z" fill="#8CBEFB"/>
<path d="M485.294 77.3469L467.854 94.4696L464.684 76.0789L485.294 77.3469Z" fill="#8CBEFB"/>
<path d="M485.182 50.9568C482.674 48.5022 478.658 48.5435 476.208 51.0515L474.59 52.7022L472.926 51.0635C470.43 48.6008 466.41 48.6342 463.949 51.1315C461.49 53.6302 461.521 57.6488 464.02 60.1088L470.194 66.1888C470.208 66.2022 470.216 66.2182 470.229 66.2302C471.214 67.1968 472.432 67.7742 473.7 67.9688C475.654 68.2675 477.716 67.6542 479.205 66.1368L485.277 59.9342C487.73 57.4288 487.688 53.4102 485.182 50.9568Z" fill="white"/>
<path d="M497.327 53.0909H522.053" stroke="white" stroke-width="1.35867" stroke-miterlimit="10" stroke-linecap="round" stroke-linejoin="round"/>
<path d="M497.327 59.951H510.368" stroke="white" stroke-width="1.35867" stroke-miterlimit="10" stroke-linecap="round" stroke-linejoin="round"/>
<path d="M416.162 559.971L400.348 568.675C398.672 569.599 397.656 571.711 398.178 573.713C398.587 575.295 399.938 576.504 403.456 576.573C411.274 576.729 445.867 570.964 445.867 570.964V575.937L462.032 576.021C462.032 576.021 463.044 552.508 458.155 549.511L416.162 559.971Z" fill="#200200"/>
<path d="M437.345 542.678L416.161 559.971C416.161 559.971 418.886 567.79 430.96 562.576C443.032 557.364 458.154 549.511 458.154 549.511L455.949 540.463L437.345 542.678Z" fill="#F9C795"/>
<path d="M455.949 540.463L458.155 477.689L437.157 475.983V549.511L455.949 540.463Z" fill="#F9C795"/>
<path d="M418.561 289.216L427.344 533.667H468.067L470.147 269.468L418.561 289.216Z" fill="#3F1C1C"/>
<path d="M423.128 284.931L443.618 404.033C446.102 418.732 461.173 427.699 475.277 422.868C485.652 419.315 492.332 409.221 491.55 398.284L487.63 344.185C485.653 325.821 490.208 302.075 470.148 269.468L423.128 284.931Z" fill="#5B302E"/>
<path d="M530.831 553.969L522.044 569.737C521.113 571.409 521.372 573.739 522.876 575.16C524.064 576.283 525.849 576.592 528.868 574.784C535.579 570.769 561.844 547.531 561.844 547.531L564.481 551.747L578.231 543.241C578.231 543.241 566.613 522.773 560.879 522.827L530.831 553.969Z" fill="#200200"/>
<path d="M539.615 528.073L530.831 553.969C530.831 553.969 537.289 559.152 544.757 548.328C552.225 537.505 560.879 522.825 560.879 522.825L554.211 516.325L539.615 528.073Z" fill="#F9C795"/>
<path d="M554.211 516.326L522.778 461.943L504.074 471.635L543.08 533.965L554.211 516.326Z" fill="#F9C795"/>
<path d="M446.669 412.355L522.364 525.24L557.64 502.625L484.481 379.803L446.669 412.355Z" fill="#5B302E"/>
<path d="M390.197 91.4934C390.197 91.4934 373.377 89.3027 371.182 105.221C369.55 117.072 375.003 122.908 370.729 132.437C366.455 141.968 374.474 150.491 374.474 150.491C374.474 150.491 394.399 159.744 416.046 140.819L390.197 91.4934Z" fill="#B6A496"/>
<path d="M396.732 144.745L405.857 168.453L424.952 163.367L407.316 129.287L396.732 144.745Z" fill="#F9C795"/>
<path d="M401.092 156.073L405.007 138.705L397.89 147.752L401.092 156.073Z" fill="black"/>
<path d="M388.066 95.0578C388.066 95.0578 376.732 97.4498 376.724 111.835C376.724 111.835 376.181 117.332 376.901 132.319C377.41 142.935 382.42 150.284 392.38 149.27C397.21 148.776 402.269 145.828 406.8 142.011L413.145 135.544C427.816 117.642 412.509 90.6618 389.724 94.7298C389.178 94.8271 388.626 94.9365 388.066 95.0578Z" fill="#F9C795"/>
<path d="M377.625 123.955L373.608 131.008C373.137 131.755 373.381 132.903 374.368 132.966L379.574 133.644L377.625 123.955Z" fill="#F9C795"/>
<path d="M404.417 119.765C404.821 116.509 407.035 93.8595 390.067 96.7835C387.435 97.2368 386.101 93.7328 388.366 92.3182C394.429 88.5315 404.059 85.9208 417.982 91.2835C423.634 93.4595 431.422 100.912 431.425 108.233C431.433 123.948 426.197 131.916 416.986 140.005C416.513 140.421 415.767 140.28 415.478 139.72L409.543 128.252C409.522 128.21 409.506 128.172 409.493 128.126C408.838 126.046 405.535 121.668 404.609 120.464C404.451 120.262 404.386 120.018 404.417 119.765Z" fill="#B6A496"/>
<path d="M393.057 91.2226C371.719 101.059 402.947 124.473 402.947 124.473L411.735 107.177C411.735 107.177 396.623 89.5799 393.057 91.2226Z" fill="#B6A496"/>
<path d="M378.913 110.814L390.197 114.64C390.197 114.64 388.233 111.009 384.231 109.065C378.857 106.454 378.913 110.814 378.913 110.814Z" fill="black"/>
<path d="M381.286 118.522C381.286 118.522 385.081 119.343 385.212 123.133C385.345 126.921 381.217 126.662 381.217 126.662C381.217 126.662 377.656 122.078 381.286 118.522Z" fill="white"/>
<path d="M382.053 117.543C382.053 117.543 385 123.02 381.217 126.663C377.435 130.304 381.217 126.663 381.217 126.663L379.095 126.46L378.993 120.423L382.053 117.543Z" fill="black"/>
<path d="M380.371 117.569C381.071 117.617 381.632 117.773 382.222 118.004C382.795 118.236 383.334 118.563 383.794 118.972C384.254 119.38 384.647 119.864 384.912 120.403C385.204 120.928 385.356 121.503 385.482 122.067C385.508 122.185 385.432 122.303 385.314 122.329C385.206 122.352 385.099 122.292 385.062 122.192L385.055 122.175C384.86 121.669 384.65 121.175 384.331 120.76C384.035 120.331 383.648 119.981 383.23 119.707C382.807 119.429 382.34 119.232 381.852 119.113C381.379 118.997 380.828 118.945 380.411 118.981L380.383 118.984C379.992 119.016 379.65 118.727 379.616 118.337C379.583 117.947 379.872 117.603 380.263 117.569C380.298 117.568 380.338 117.568 380.371 117.569Z" fill="black"/>
<path d="M377.598 135.655C376.25 135.867 376.148 137.429 377.382 137.933C377.382 137.933 375.751 139.598 378.227 140.151C380.702 140.706 383.02 136.479 383.02 136.479C380.003 137.149 379.375 135.377 377.598 135.655Z" fill="#E81114"/>
<path d="M406.001 129.382C407.329 138.877 406.225 149.363 406.225 149.363C406.225 149.363 433.153 158.017 445.389 127.375C445.389 127.375 437.575 124.362 435.176 117.643C432.776 110.926 435.144 87.5553 403.713 88.2487C403.713 88.2487 404.505 118.685 406.001 129.382Z" fill="#B6A496"/>
<path d="M416.345 124.282C416.842 128.258 414.021 131.885 410.045 132.381C406.069 132.877 402.442 130.057 401.946 126.081C401.45 122.104 404.27 118.478 408.248 117.982C412.224 117.485 415.849 120.306 416.345 124.282Z" fill="#F9C795"/>
<path d="M406.001 128.25C406.001 128.25 406.287 122.726 410.837 122.629" stroke="black" stroke-width="0.681333" stroke-miterlimit="10" stroke-linecap="round" stroke-linejoin="round"/>
<path d="M452.875 181.573L497.51 217.718C503.9 223.178 504.386 232.887 498.57 238.957C493.252 244.507 484.546 244.994 478.642 240.071L430.202 201.697L452.875 181.573Z" fill="#F9C795"/>
<path d="M479.652 194.843C479.652 194.843 477.744 209.235 452.664 225.754L418.574 200.412C409.055 193.335 407.664 179.612 415.57 170.77C422.122 163.444 432.996 161.903 441.324 167.12L479.652 194.843Z" fill="#097BCD"/>
<path d="M478.829 240.59L523.103 297.47L533.963 284.74L500.864 221.562C495.481 214.299 484.859 213.626 478.603 220.15C473.099 225.888 473.2 234.975 478.829 240.59Z" fill="#F9C795"/>
<path d="M520.522 295.055L520.066 297.903C519.456 301.729 519.752 305.645 520.932 309.335L523.009 315.833C523.502 317.375 525.266 318.106 526.708 317.362C527.924 316.735 528.636 315.43 528.508 314.069L527.829 306.861L542.23 327.241C542.91 328.255 544.328 328.445 545.25 327.641L545.869 327.102C546.597 326.469 546.776 325.409 546.298 324.57L537.105 310.513L549.898 325.198C550.641 326.165 552.061 326.263 552.93 325.41L553.361 324.986C554.092 324.267 554.172 323.118 553.549 322.305L542.969 308.686L553.27 317.259C554.241 318.119 555.757 317.861 556.388 316.729L556.516 316.501C556.948 315.723 556.825 314.755 556.213 314.113L546.145 304.443L552.466 308.222C553.629 309.163 555.377 308.567 555.718 307.111C555.884 306.418 555.67 305.691 555.161 305.194L529.476 281.15L524.226 287.154C522.273 289.387 520.99 292.126 520.522 295.055Z" fill="#F9C795"/>
<path d="M418.762 162.645C418.762 162.645 401.219 160.945 400.99 192.636C400.759 224.408 410.786 239.384 418.562 289.216C418.562 289.216 448.312 285.569 470.147 269.469C470.147 269.469 471.506 152.753 418.762 162.645Z" fill="#009DEE"/>
<path d="M415.216 205.101L373.727 244.816C367.504 250.467 357.81 249.723 352.523 243.188C347.688 237.212 348.304 228.513 353.934 223.279L398.115 180.069L415.216 205.101Z" fill="#F9C795"/>
<path d="M403.904 230.283C403.904 230.283 389.432 229.783 374.552 200.278L403.728 169.404C411.876 160.783 425.666 161.016 433.518 169.908C440.022 177.275 440.273 188.255 434.113 195.912L403.904 230.283Z" fill="#009DEE"/>
<path d="M407.91 225.724L427.857 203.03" stroke="black" stroke-width="0.681333" stroke-miterlimit="10" stroke-linecap="round" stroke-linejoin="round"/>
<path d="M372.999 223.721L313.877 178.985L306.116 191.158L352.836 243.623C358.533 250.325 368.891 250.291 374.543 243.551C379.515 237.623 378.828 228.807 372.999 223.721Z" fill="#F9C795"/>
<path d="M321.71 191.34C319.482 198.83 312.252 198.532 298.039 194.546C290.512 192.437 287.783 187.105 290.011 179.613C292.238 172.121 300.118 167.854 307.61 170.082C315.1 172.312 323.938 183.848 321.71 191.34Z" fill="#F9C795"/>
<path d="M310.215 171.148L292.15 160.646C290.962 159.839 289.291 160.127 288.468 161.28C287.756 162.28 287.916 163.614 288.848 164.426L302.87 176.28L310.215 171.148Z" fill="#F9C795"/>
</svg>
