<svg width="54" height="54" viewBox="0 0 54 54" fill="none" xmlns="http://www.w3.org/2000/svg">
<path d="M54 26.9998C54 41.9113 41.9117 54 26.9998 54C12.0883 54 0 41.9113 0 26.9998C0 12.0883 12.0883 0 26.9998 0C41.9117 0 54 12.0883 54 26.9998Z" fill="#00E272"/>
<path d="M43.9511 43.6853C43.0099 40.3381 40.4002 37.7185 37.0567 36.7646L30.8889 35.0046H27.0006H23.1123L16.9445 36.7646C13.601 37.7185 10.9913 40.3381 10.0501 43.6853L8.35315 46.5154C13.2004 51.1485 19.7655 53.9999 27.0006 53.9999C34.2357 53.9999 40.8008 51.1485 45.6485 46.5154L43.9511 43.6853Z" fill="#383838"/>
<path d="M30.6345 30.0418H27.0006H23.3667L22.2218 36.0372C22.2218 36.0372 24.2721 38.1864 27.0006 38.2993C29.7295 38.1864 31.7798 36.0372 31.7798 36.0372L30.6345 30.0418Z" fill="#F0F2F2"/>
<path d="M35.1281 21.6293C35.1281 26.5433 31.4888 33.1242 26.9989 33.1242C22.5096 33.1242 18.8702 26.5433 18.8702 21.6293C18.8702 16.7154 22.5096 12.7318 26.9989 12.7318C31.4888 12.7318 35.1281 16.7154 35.1281 21.6293Z" fill="white"/>
<path d="M19.9 22.3155C19.8614 23.2758 19.2899 24.5409 18.6489 24.5151C18.008 24.4892 17.5403 23.1824 17.5789 22.2221C17.6174 21.2618 18.1686 20.5043 18.8095 20.5301C19.4505 20.556 19.9386 21.3552 19.9 22.3155Z" fill="white"/>
<path d="M36.2709 22.2299C36.3035 23.1906 35.8272 24.4943 35.1863 24.5161C34.5449 24.5379 33.9819 23.2691 33.9493 22.3084C33.9166 21.3481 34.4102 20.5515 35.0511 20.5302C35.6921 20.5084 36.2382 21.2691 36.2709 22.2299Z" fill="white"/>
<path d="M20.7232 13.0736C19.3329 16.2466 25.0008 16.0783 26.5948 15.8892C26.9921 15.842 27.4303 15.71 27.8231 15.7785C28.26 15.8547 28.6882 16.0829 29.1436 16.1532C30.1352 16.3061 31.1626 16.2298 32.1175 15.9218C32.3361 15.8515 32.5802 15.7703 32.7861 15.871C32.9108 15.9323 32.9966 16.0498 33.076 16.1641C33.4506 16.7034 33.7981 17.2754 33.9696 17.9096C34.2127 18.8073 34.0871 19.7562 34.0385 20.6848C34.009 21.2604 33.9673 23.3007 34.713 23.4373C34.8264 22.4711 34.938 21.4985 35.0505 20.5301C35.0505 20.5301 35.8575 17.6102 35.5731 16.082C35.1281 13.6942 33.3989 10.7357 26.4963 10.8092C21.6976 10.86 20.7269 13.065 20.7232 13.0736Z" fill="#AEAEAE"/>
<path d="M22.7059 14.7549C22.6923 14.8306 22.6551 14.9032 22.5889 14.9699C22.4228 15.1368 22.1747 15.1812 21.9552 15.2656C21.2571 15.5342 20.8275 16.2227 20.4483 16.8673C20.2047 17.2815 19.9543 17.716 19.9239 18.1955C19.8822 18.8523 20.2478 19.4266 20.3362 20.0607C20.4056 20.5606 20.2863 21.0183 20.1489 21.495C20.0849 21.7173 19.6 23.6315 19.2054 23.4351L18.8683 20.5298C18.8683 20.5298 18.0609 17.6099 18.3458 16.0817C18.6211 14.6047 19.3514 12.8071 21.189 13.3087C21.5646 13.4113 22.8079 14.1838 22.7059 14.7549Z" fill="#AEAEAE"/>
</svg>
