<svg width="44" height="44" viewBox="0 0 44 44" fill="none" xmlns="http://www.w3.org/2000/svg">
<g clip-path="url(#clip0_83_115)">
<path d="M0.938994 21.7367C0.937963 25.4335 1.91146 29.0432 3.76256 32.2249L0.761963 43.0956L11.9737 40.1786C15.0747 41.8537 18.5492 42.7315 22.08 42.7317H22.0892C33.7449 42.7317 43.233 33.3206 43.2379 21.7532C43.2402 16.148 41.0422 10.8772 37.0489 6.91174C33.0562 2.94663 27.7462 0.761805 22.0884 0.759247C10.4313 0.759247 0.943979 10.1698 0.939166 21.7367" fill="url(#paint0_linear_83_115)"/>
<path d="M0.183906 21.7299C0.182703 25.5597 1.19109 29.2985 3.10819 32.5941L0 43.8545L11.6138 40.833C14.8137 42.5642 18.4166 43.477 22.0827 43.4783H22.0921C34.166 43.4783 43.9948 33.7287 44 21.7473C44.0021 15.9406 41.7251 10.4804 37.5891 6.37284C33.4525 2.26583 27.9525 0.0023876 22.0921 0C10.0162 0 0.188891 9.74822 0.184078 21.7299H0.183906ZM7.10016 32.0266L6.66652 31.3435C4.84361 28.4675 3.88145 25.144 3.88283 21.7312C3.88678 11.7724 12.055 3.67008 22.099 3.67008C26.9631 3.67212 31.5343 5.55355 34.9724 8.96713C38.4105 12.3811 40.3023 16.9192 40.3011 21.7459C40.2966 31.7047 32.1283 39.8081 22.0921 39.8081H22.0849C18.817 39.8064 15.6121 38.9356 12.8171 37.29L12.1519 36.8986L5.26006 38.6915L7.10016 32.0264V32.0266Z" fill="url(#paint1_linear_83_115)"/>
<path d="M16.6165 12.6454C16.2064 11.741 15.7748 11.7228 15.3848 11.7069C15.0655 11.6933 14.7004 11.6943 14.3357 11.6943C13.9706 11.6943 13.3775 11.8306 12.8761 12.3737C12.3743 12.9174 10.9601 14.2313 10.9601 16.9035C10.9601 19.5759 12.9217 22.1584 13.1951 22.5212C13.4689 22.8833 16.9821 28.5425 22.546 30.7197C27.1701 32.529 28.1111 32.1691 29.1147 32.0784C30.1185 31.988 32.3535 30.7649 32.8095 29.4966C33.2658 28.2284 33.2658 27.1414 33.129 26.9142C32.9922 26.6879 32.6272 26.552 32.0797 26.2805C31.5321 26.0088 28.8409 24.6948 28.3392 24.5135C27.8373 24.3324 27.4725 24.242 27.1074 24.7858C26.7423 25.3288 25.6941 26.552 25.3745 26.9142C25.0554 27.2773 24.7359 27.3225 24.1886 27.0508C23.6408 26.7783 21.8779 26.2054 19.7864 24.3552C18.1591 22.9155 17.0604 21.1376 16.7411 20.5937C16.4218 20.0507 16.7069 19.7564 16.9814 19.4857C17.2273 19.2423 17.529 18.8515 17.8029 18.5344C18.0759 18.2172 18.167 17.9909 18.3495 17.6287C18.5322 17.2661 18.4408 16.9489 18.3041 16.6772C18.167 16.4055 17.1032 13.7195 16.6165 12.6456" fill="white"/>
</g>
<defs>
<linearGradient id="paint0_linear_83_115" x1="22" y1="43.0956" x2="22" y2="0.759247" gradientUnits="userSpaceOnUse">
<stop stop-color="#1FAF38"/>
<stop offset="1" stop-color="#60D669"/>
</linearGradient>
<linearGradient id="paint1_linear_83_115" x1="22" y1="43.8545" x2="22" y2="0" gradientUnits="userSpaceOnUse">
<stop stop-color="#F9F9F9"/>
<stop offset="1" stop-color="white"/>
</linearGradient>
<clipPath id="clip0_83_115">
<rect width="44" height="44" fill="white"/>
</clipPath>
</defs>
</svg>
