<svg width="514" height="576" viewBox="0 0 514 576" fill="none" xmlns="http://www.w3.org/2000/svg">
<path d="M554.95 329.953C529.774 288.643 470.379 263.173 426.389 249.845C426.375 249.843 419.282 250.311 419.27 250.304C412.705 245.545 412.022 241.505 402.819 239.505C390.403 236.804 363.649 231.573 350.827 231.712L303.453 232.224C289.274 232.377 276.017 238.819 261.959 238.972C173.762 239.924 206.687 416.992 206.687 416.992L201.919 597.088L454.449 597.1C454.449 597.1 451.59 491.071 451.585 490.845C451.589 491.019 498.129 478.756 502.486 477.065C519.054 470.64 535.074 461.772 546.925 448.26C573.034 418.497 575.77 367.967 557.173 333.808C556.465 332.508 555.723 331.223 554.95 329.953Z" fill="#009DEE"/>
<path d="M202.604 596.421L453.764 596.434C453.497 586.532 450.924 491.077 450.918 490.861C450.912 490.6 451.061 490.358 451.298 490.245C451.378 490.206 451.465 490.184 451.553 490.18C453.894 489.78 498.198 478.013 502.245 476.445C521.696 468.9 536.148 459.537 546.424 447.821C571.357 419.396 575.822 369.456 556.586 334.126C555.885 332.838 555.142 331.552 554.381 330.3C527.758 286.616 462.765 261.574 426.309 250.518C425.952 250.54 424.784 250.616 423.505 250.7C419.141 250.984 419.138 250.985 418.972 250.901C416.697 249.262 415.133 247.74 413.754 246.397C410.925 243.641 408.689 241.464 402.678 240.157C385.832 236.492 362.134 232.238 350.836 232.38L303.461 232.892C296.43 232.968 289.488 234.64 282.773 236.257C276.028 237.882 269.056 239.561 261.966 239.638C246.037 239.81 233.033 245.892 223.316 257.71C186.581 302.393 207.13 415.73 207.342 416.87C207.352 416.917 207.354 416.964 207.354 417.01L202.604 596.421ZM454.449 597.768L201.92 597.754C201.74 597.754 201.568 597.681 201.441 597.553C201.317 597.424 201.248 597.25 201.253 597.069L206.02 417.045C205.404 413.653 185.536 301.566 222.285 256.865C232.265 244.726 245.61 238.481 261.952 238.305C268.89 238.23 275.789 236.568 282.461 234.961C289.246 233.326 296.265 231.636 303.445 231.558L350.82 231.046C350.989 231.044 351.161 231.044 351.334 231.044C366.605 231.044 399.25 238.046 402.962 238.853C409.346 240.242 411.821 242.652 414.686 245.442C416.054 246.776 417.468 248.153 419.47 249.625C420.085 249.588 421.838 249.473 423.417 249.369C426.445 249.172 426.445 249.172 426.55 249.198C463.198 260.301 528.638 285.498 555.52 329.608C556.293 330.876 557.045 332.181 557.758 333.489C577.242 369.277 572.704 419.884 547.426 448.701C537.005 460.582 522.384 470.062 502.728 477.686C502.306 477.85 459.585 489.9 452.264 491.289C452.466 498.82 455.088 596.062 455.116 597.082C455.121 597.262 455.052 597.437 454.926 597.565C454.8 597.694 454.629 597.768 454.449 597.768Z" fill="#5C69AB"/>
<path d="M390.148 31.4853C366.023 17.3426 355.591 -4.52405 320.613 0.825287C309.4 2.54129 299.125 8.34929 293.025 17.412C290.628 20.9733 288.797 25.0693 288.46 29.5053L271.099 29.9666C247.537 30.5946 231.291 52.548 238.731 73.7066L250.915 93.8226L251.333 130.427C251.527 147.401 266.231 161.013 284.175 160.829L363.525 160.019C381.469 159.835 395.859 145.925 395.665 128.951L395.287 95.9026C406.845 86.656 425.621 52.28 390.148 31.4853Z" fill="#B6A496"/>
<path d="M412.411 117.329C412.268 104.157 401.475 93.5939 388.303 93.7365L386.172 93.7592L385.9 68.6325C385.604 41.1525 363.087 19.1152 335.606 19.4125L312.479 19.6619C284.998 19.9592 262.962 42.4765 263.259 69.9579L263.53 95.0832L261.41 95.1072C248.238 95.2485 237.675 106.043 237.818 119.215L237.83 120.391C237.972 133.563 248.766 144.126 261.939 143.983L264.059 143.961L264.222 159.095C264.41 176.439 273.456 191.601 287.008 200.361L287.188 216.995C287.415 238.022 304.804 255.039 325.83 254.811C346.858 254.585 363.875 237.195 363.648 216.169L363.479 200.49C377.679 191.594 387.058 175.753 386.864 157.77L386.7 142.635L388.83 142.613C402.002 142.47 412.566 131.677 412.423 118.505L412.411 117.329Z" fill="#FFA485"/>
<path d="M394.507 126.291C394.199 126.291 393.889 126.185 393.638 125.969L388.698 121.713C388.141 121.234 388.077 120.394 388.554 119.837L395.347 111.895C395.826 111.334 396.67 111.271 397.227 111.749C397.786 112.227 397.853 113.069 397.373 113.627L391.443 120.559L395.377 123.947C395.935 124.429 395.998 125.27 395.518 125.829C395.254 126.134 394.881 126.291 394.507 126.291Z" fill="#E06A4B"/>
<path d="M253.692 126.27C253.327 126.27 252.964 126.121 252.7 125.829C252.208 125.281 252.252 124.438 252.8 123.945L256.659 120.474L250.582 113.671C250.09 113.122 250.138 112.279 250.687 111.789C251.236 111.298 252.079 111.347 252.57 111.894L259.532 119.687C260.023 120.235 259.976 121.075 259.431 121.567L254.583 125.929C254.328 126.158 254.01 126.27 253.692 126.27Z" fill="#E06A4B"/>
<path d="M331.376 174.69C331.113 174.69 330.847 174.611 330.615 174.45C330.403 174.302 325.337 170.875 320.463 174.434C319.868 174.869 319.033 174.737 318.6 174.143C318.167 173.549 318.295 172.715 318.891 172.279C324.039 168.519 329.812 170.626 332.144 172.266C332.747 172.69 332.892 173.522 332.468 174.123C332.208 174.493 331.795 174.69 331.376 174.69Z" fill="#E06A4B"/>
<path d="M360.793 89.7172C359.027 90.1398 356.939 89.5505 354.891 89.0985C352.838 88.5985 350.765 88.1478 348.947 87.8212C347.129 87.4932 345.026 87.1892 342.929 86.9398C340.851 86.6478 338.682 86.4692 337.191 85.4585C335.747 84.5065 335.446 82.4692 337.707 80.4385C339.843 78.4505 344.821 76.7678 350.845 77.8385C356.855 78.9385 360.885 82.2465 362.154 84.8492C363.515 87.5332 362.489 89.3305 360.793 89.7172Z" fill="#B6A496"/>
<path d="M281.304 90.1045C283.004 90.7458 285.147 90.4205 287.234 90.2285C289.332 89.9885 291.446 89.8005 293.287 89.7045C295.132 89.6058 297.255 89.5672 299.367 89.5832C301.464 89.5525 303.639 89.6485 305.24 88.8312C306.787 88.0658 307.332 86.0818 305.332 83.7845C303.45 81.5432 298.715 79.2498 292.608 79.5605C286.508 79.8992 282.11 82.6778 280.54 85.1032C278.866 87.5965 279.666 89.5085 281.304 90.1045Z" fill="#B6A496"/>
<path d="M342.494 109.607C341.436 111.91 342.444 114.635 344.746 115.694C347.05 116.754 349.776 115.746 350.834 113.442C351.894 111.138 350.885 108.412 348.581 107.355C346.28 106.295 343.553 107.303 342.494 109.607Z" fill="#111111"/>
<path d="M341.787 118.51C341.307 118.51 340.842 118.25 340.603 117.794C340.263 117.141 340.517 116.335 341.169 115.994C347.407 112.739 352.199 115.826 352.399 115.958C353.014 116.365 353.182 117.193 352.775 117.806C352.37 118.418 351.546 118.587 350.934 118.186C350.77 118.082 347.193 115.857 342.403 118.359C342.206 118.461 341.994 118.51 341.787 118.51Z" fill="#E06A4B"/>
<path d="M292.509 110.147C291.449 112.451 292.458 115.175 294.761 116.235C297.065 117.293 299.79 116.285 300.849 113.981C301.909 111.679 300.899 108.952 298.595 107.895C296.293 106.835 293.567 107.843 292.509 110.147Z" fill="#111111"/>
<path d="M291.802 119.05C291.322 119.05 290.856 118.79 290.618 118.334C290.278 117.681 290.531 116.875 291.183 116.534C297.427 113.275 302.214 116.365 302.414 116.498C303.028 116.905 303.196 117.731 302.79 118.346C302.386 118.959 301.564 119.129 300.948 118.726C300.787 118.623 297.21 116.398 292.418 118.899C292.22 119.002 292.008 119.05 291.802 119.05Z" fill="#E06A4B"/>
<path d="M324.786 131.297C320.454 131.297 316.626 129.704 314.651 127.037C313.249 125.143 312.913 122.888 313.706 120.692L321.439 99.2972C321.691 98.6025 322.457 98.2452 323.147 98.4958C323.839 98.7452 324.198 99.5105 323.947 100.203L316.214 121.599C315.727 122.948 315.927 124.28 316.795 125.451C318.379 127.593 321.734 128.793 325.555 128.611C327.597 128.508 329.857 128.185 332.27 127.655C332.982 127.491 333.701 127.949 333.859 128.669C334.018 129.388 333.563 130.1 332.843 130.259C330.286 130.821 327.878 131.163 325.691 131.273C325.387 131.289 325.086 131.297 324.786 131.297Z" fill="#E06A4B"/>
<g opacity="0.389999">
<path d="M286.505 66.8897C285.979 66.8897 285.483 66.5804 285.271 66.0657C284.99 65.3857 285.313 64.6057 285.994 64.3244C287.045 63.8897 311.841 53.8097 321.986 64.6444C322.489 65.183 322.462 66.027 321.923 66.5297C321.386 67.0337 320.542 67.0057 320.038 66.4684C311.153 56.9737 287.254 66.6897 287.013 66.7884C286.846 66.8577 286.674 66.8897 286.505 66.8897Z" fill="#E06A4B"/>
</g>
<g opacity="0.389999">
<path d="M355.522 66.8897C355.352 66.8897 355.18 66.8577 355.014 66.7884C354.774 66.6897 330.875 56.975 321.987 66.4684C321.482 67.0044 320.639 67.0324 320.102 66.5297C319.563 66.027 319.536 65.183 320.039 64.6444C330.187 53.811 354.982 63.891 356.032 64.3244C356.714 64.6057 357.036 65.3857 356.755 66.0657C356.543 66.579 356.047 66.8897 355.522 66.8897Z" fill="#E06A4B"/>
</g>
<g opacity="0.389999">
<path d="M324.918 52.684C314.619 52.684 306.192 47.9053 305.666 47.5986C305.028 47.2293 304.811 46.4146 305.179 45.7773C305.548 45.14 306.362 44.924 307 45.2906C307.183 45.396 325.367 55.672 340.078 45.3533C340.682 44.9293 341.512 45.0773 341.935 45.68C342.358 46.2826 342.212 47.1133 341.61 47.5373C336.104 51.3986 330.259 52.684 324.918 52.684Z" fill="#E06A4B"/>
</g>
<path d="M276.372 97.0771C273.712 97.0771 271.548 99.2411 271.548 101.901V122.228C271.548 124.888 273.712 127.052 276.372 127.052H302.861C305.521 127.052 307.685 124.888 307.685 122.228V101.901C307.685 99.2411 305.521 97.0771 302.861 97.0771H276.372ZM302.861 129.718H276.372C272.241 129.718 268.881 126.358 268.881 122.228V101.901C268.881 97.7705 272.241 94.4105 276.372 94.4105H302.861C306.992 94.4105 310.352 97.7705 310.352 101.901V122.228C310.352 126.358 306.992 129.718 302.861 129.718Z" fill="#F5EAE2"/>
<path d="M341.024 97.0771C338.364 97.0771 336.2 99.2411 336.2 101.901V122.228C336.2 124.888 338.364 127.052 341.024 127.052H367.514C370.174 127.052 372.338 124.888 372.338 122.228V101.901C372.338 99.2411 370.174 97.0771 367.514 97.0771H341.024ZM367.514 129.718H341.024C336.894 129.718 333.534 126.358 333.534 122.228V101.901C333.534 97.7705 336.894 94.4105 341.024 94.4105H367.514C371.644 94.4105 375.004 97.7705 375.004 101.901V122.228C375.004 126.358 371.644 129.718 367.514 129.718Z" fill="#F5EAE2"/>
<path d="M334.865 111.404C334.577 111.404 334.285 111.311 334.041 111.119C320.421 100.391 310.404 110.553 309.984 110.991C309.477 111.523 308.632 111.543 308.1 111.035C307.568 110.527 307.547 109.685 308.052 109.153C308.171 109.028 320.12 96.7613 335.692 109.023C336.271 109.479 336.369 110.317 335.913 110.896C335.651 111.229 335.26 111.404 334.865 111.404Z" fill="#F5EAE2"/>
<path d="M343.655 141.899C342.077 140.425 339.673 140.324 337.864 141.501C334.568 143.645 327.571 147.26 318.5 146.687C316.273 146.547 314.72 148.907 315.329 151.052C316.671 155.772 321.085 163.439 333.505 159.948C348.637 155.695 347.767 145.739 343.655 141.899Z" fill="white"/>
<path d="M346.665 146.144H301.911C301.911 137.786 308.686 131.013 317.041 131.013H332.167C340.174 131.013 346.665 137.504 346.665 145.51V146.144Z" fill="#B6A496"/>
<g opacity="0.460007">
<path d="M277.528 60.9399C277.528 61.9412 276.716 62.7545 275.715 62.7545C274.712 62.7545 273.899 61.9412 273.899 60.9399C273.899 59.9385 274.712 59.1252 275.715 59.1252C276.716 59.1252 277.528 59.9385 277.528 60.9399Z" fill="#E06A4B"/>
</g>
<g opacity="0.460007">
<path d="M271.136 73.8252C271.136 74.8265 270.324 75.6398 269.321 75.6398C268.318 75.6398 267.506 74.8265 267.506 73.8252C267.506 72.8225 268.318 72.0105 269.321 72.0105C270.324 72.0105 271.136 72.8225 271.136 73.8252Z" fill="#E06A4B"/>
</g>
<g opacity="0.460007">
<path d="M283.632 70.1957C283.632 71.1984 282.822 72.0104 281.819 72.0104C280.816 72.0104 280.003 71.1984 280.003 70.1957C280.003 69.1944 280.816 68.381 281.819 68.381C282.822 68.381 283.632 69.1944 283.632 70.1957Z" fill="#E06A4B"/>
</g>
<g opacity="0.460007">
<path d="M365.609 40.0029C365.609 41.0042 364.797 41.8176 363.794 41.8176C362.793 41.8176 361.98 41.0042 361.98 40.0029C361.98 39.0002 362.793 38.1882 363.794 38.1882C364.797 38.1882 365.609 39.0002 365.609 40.0029Z" fill="#E06A4B"/>
</g>
<g opacity="0.460007">
<path d="M359.216 52.8877C359.216 53.8891 358.404 54.7024 357.402 54.7024C356.4 54.7024 355.586 53.8891 355.586 52.8877C355.586 51.8864 356.4 51.0731 357.402 51.0731C358.404 51.0731 359.216 51.8864 359.216 52.8877Z" fill="#E06A4B"/>
</g>
<g opacity="0.460007">
<path d="M371.713 49.2588C371.713 50.2601 370.901 51.0734 369.9 51.0734C368.897 51.0734 368.084 50.2601 368.084 49.2588C368.084 48.2561 368.897 47.4441 369.9 47.4441C370.901 47.4441 371.713 48.2561 371.713 49.2588Z" fill="#E06A4B"/>
</g>
<g opacity="0.5">
<path d="M319.949 184.401C315.086 184.455 310.51 183.213 306.541 181.009C309.627 188.784 317.273 194.283 326.102 194.187C334.801 194.093 342.233 188.596 345.241 180.94C341.465 183.013 337.138 184.216 332.529 184.265L319.949 184.401Z" fill="#E06A4B"/>
</g>
<path d="M314.518 208.315C305.574 208.411 297.163 206.131 289.866 202.077C295.539 216.371 309.596 226.48 325.83 226.305C341.823 226.132 355.487 216.027 361.018 201.949C354.074 205.761 346.119 207.973 337.644 208.065L314.518 208.315Z" fill="#E06A4B"/>
<path d="M438.955 253.523C432.939 247.619 419.901 244.076 411.097 240.984C411.283 241.475 411.145 242.868 410.863 243.379L327.377 395.215L244.462 243.116C244.259 242.744 244.225 242.335 244.314 241.958C235.759 244.976 228.793 250.164 223.146 256.911L310.075 416.374C317.517 430.023 337.102 430.06 344.594 416.436L438.955 253.523Z" fill="#00CFA8"/>
<path d="M410.863 243.379C411.449 242.311 410.884 240.975 409.706 240.664C404.442 239.272 391.927 235.972 390.626 235.724C368.78 231.575 347.535 252.931 325.892 253.523C300.047 254.231 299.383 225.733 247.971 239.801C247.828 239.84 246.474 240.337 245.312 240.796C244.388 241.161 243.987 242.244 244.463 243.117L327.378 395.215L410.863 243.379Z" fill="white"/>
<path d="M273.121 236.576C266.381 236.576 258.253 237.679 248.147 240.444C248.001 240.489 246.701 240.965 245.558 241.416C245.287 241.524 245.085 241.731 244.986 242.001C244.89 242.267 244.913 242.549 245.047 242.799L327.379 393.827L410.278 243.059V243.057C410.461 242.728 410.481 242.341 410.333 241.996C410.186 241.655 409.895 241.404 409.535 241.308C398.142 238.297 391.382 236.547 390.501 236.38C378.655 234.129 366.695 239.648 355.126 244.983C345.599 249.377 335.749 253.92 325.911 254.189C316.003 254.453 309.661 250.491 302.983 246.287C295.607 241.643 287.558 236.576 273.121 236.576ZM327.377 395.881H327.375C327.133 395.881 326.909 395.748 326.791 395.535L243.877 243.436C243.561 242.856 243.509 242.168 243.733 241.548C243.959 240.921 244.446 240.423 245.067 240.177C246.149 239.749 247.593 239.213 247.794 239.159C280.119 230.313 292.642 238.2 303.694 245.159C310.195 249.252 316.349 253.136 325.874 252.856C335.438 252.595 345.163 248.109 354.567 243.772C366.326 238.348 378.479 232.737 390.751 235.069C391.918 235.292 401.795 237.884 409.875 240.02C410.635 240.22 411.249 240.749 411.558 241.471C411.869 242.196 411.827 243.008 411.447 243.7L327.962 395.537C327.845 395.749 327.621 395.881 327.377 395.881Z" fill="#111111"/>
<path d="M325.893 253.523L327.377 395.215L325.893 253.523Z" fill="white"/>
<path d="M327.377 395.882C327.013 395.882 326.714 395.587 326.71 395.222L325.226 253.53C325.222 253.162 325.517 252.861 325.886 252.857H325.893C326.257 252.857 326.556 253.15 326.56 253.517L328.044 395.209C328.048 395.577 327.752 395.878 327.384 395.882H327.377Z" fill="#111111"/>
<path d="M338.497 325.379C338.497 327.215 337.009 328.703 335.173 328.703C333.337 328.703 331.849 327.215 331.849 325.379C331.849 323.543 333.337 322.055 335.173 322.055C337.009 322.055 338.497 323.543 338.497 325.379Z" fill="white"/>
<path d="M335.173 322.722C333.707 322.722 332.515 323.915 332.515 325.379C332.515 326.844 333.707 328.036 335.173 328.036C336.638 328.036 337.83 326.844 337.83 325.379C337.83 323.915 336.638 322.722 335.173 322.722ZM335.173 329.37C332.973 329.37 331.182 327.58 331.182 325.379C331.182 323.179 332.973 321.388 335.173 321.388C337.373 321.388 339.163 323.179 339.163 325.379C339.163 327.58 337.373 329.37 335.173 329.37Z" fill="#111111"/>
<path d="M338.497 352.313C338.497 354.149 337.009 355.637 335.173 355.637C333.337 355.637 331.849 354.149 331.849 352.313C331.849 350.477 333.337 348.989 335.173 348.989C337.009 348.989 338.497 350.477 338.497 352.313Z" fill="white"/>
<path d="M335.173 349.655C333.707 349.655 332.515 350.849 332.515 352.313C332.515 353.778 333.707 354.97 335.173 354.97C336.638 354.97 337.83 353.778 337.83 352.313C337.83 350.849 336.638 349.655 335.173 349.655ZM335.173 356.303C332.973 356.303 331.182 354.514 331.182 352.313C331.182 350.113 332.973 348.322 335.173 348.322C337.373 348.322 339.163 350.113 339.163 352.313C339.163 354.514 337.373 356.303 335.173 356.303Z" fill="#111111"/>
<path d="M338.497 295.982C338.497 297.818 337.009 299.306 335.173 299.306C333.337 299.306 331.849 297.818 331.849 295.982C331.849 294.146 333.337 292.658 335.173 292.658C337.009 292.658 338.497 294.146 338.497 295.982Z" fill="white"/>
<path d="M335.173 293.325C333.707 293.325 332.515 294.518 332.515 295.982C332.515 297.447 333.707 298.639 335.173 298.639C336.638 298.639 337.83 297.447 337.83 295.982C337.83 294.518 336.638 293.325 335.173 293.325ZM335.173 299.973C332.973 299.973 331.182 298.183 331.182 295.982C331.182 293.782 332.973 291.991 335.173 291.991C337.373 291.991 339.163 293.782 339.163 295.982C339.163 298.183 337.373 299.973 335.173 299.973Z" fill="#111111"/>
<path d="M379.403 213.746L383.494 240.018C383.777 241.837 383.439 243.697 382.537 245.299L362.133 281.49C360.106 285.083 355.158 285.643 352.379 282.594L325.893 253.523L368.678 210.277C372.322 206.594 378.606 208.626 379.403 213.746Z" fill="white"/>
<path d="M326.812 253.542L352.872 282.145C354.051 283.439 355.716 284.077 357.464 283.87C359.203 283.674 360.692 282.686 361.552 281.163L381.955 244.971C382.783 243.506 383.095 241.783 382.836 240.121L378.744 213.849V213.847C378.409 211.698 376.973 210.014 374.903 209.345C372.835 208.674 370.683 209.199 369.152 210.746L326.812 253.542ZM356.833 285.239C354.951 285.239 353.18 284.462 351.888 283.043L325.4 253.973C325.161 253.71 325.169 253.306 325.419 253.054L368.204 209.809C370.068 207.923 372.789 207.259 375.315 208.077C377.836 208.891 379.655 211.025 380.063 213.643L384.153 239.915C384.457 241.874 384.089 243.902 383.117 245.626L362.713 281.817C361.641 283.719 359.783 284.95 357.615 285.195C357.352 285.226 357.092 285.239 356.833 285.239Z" fill="#111111"/>
<path d="M360.451 273.062C360.451 274.898 358.962 276.386 357.126 276.386C355.29 276.386 353.802 274.898 353.802 273.062C353.802 271.226 355.29 269.738 357.126 269.738C358.962 269.738 360.451 271.226 360.451 273.062Z" fill="white"/>
<path d="M357.126 270.404C355.661 270.404 354.469 271.597 354.469 273.061C354.469 274.527 355.661 275.719 357.126 275.719C358.593 275.719 359.785 274.527 359.785 273.061C359.785 271.597 358.593 270.404 357.126 270.404ZM357.126 277.052C354.926 277.052 353.135 275.263 353.135 273.061C353.135 270.861 354.926 269.071 357.126 269.071C359.327 269.071 361.118 270.861 361.118 273.061C361.118 275.263 359.327 277.052 357.126 277.052Z" fill="#111111"/>
<path d="M275.076 210.159L325.892 253.523L298.792 284.346C296.226 287.266 291.652 287.187 289.188 284.179L262.379 251.465C259.811 248.331 259.047 244.093 260.359 240.259L270.202 211.494C270.899 209.454 273.436 208.759 275.076 210.159Z" fill="white"/>
<path d="M273.106 210.092C272.893 210.092 272.677 210.12 272.462 210.18C271.686 210.392 271.092 210.951 270.832 211.709L260.99 240.476C259.744 244.116 260.456 248.065 262.894 251.041L289.704 283.756C290.753 285.037 292.306 285.789 293.964 285.817C295.602 285.885 297.198 285.149 298.292 283.905L324.945 253.591L274.644 210.667C274.201 210.289 273.664 210.092 273.106 210.092ZM294.062 287.152C294.022 287.152 293.981 287.152 293.941 287.151C291.892 287.116 289.97 286.187 288.673 284.6L261.864 251.887C259.13 248.551 258.332 244.124 259.728 240.043L269.57 211.279C269.969 210.112 270.918 209.22 272.109 208.895C273.296 208.565 274.569 208.851 275.509 209.652L326.325 253.016C326.462 253.132 326.545 253.297 326.558 253.476C326.57 253.653 326.512 253.829 326.394 253.963L299.294 284.785C297.968 286.295 296.066 287.152 294.062 287.152Z" fill="#111111"/>
<path d="M296.88 273.062C296.88 274.898 295.392 276.386 293.556 276.386C291.72 276.386 290.232 274.898 290.232 273.062C290.232 271.226 291.72 269.738 293.556 269.738C295.392 269.738 296.88 271.226 296.88 273.062Z" fill="white"/>
<path d="M293.555 270.404C292.09 270.404 290.898 271.597 290.898 273.061C290.898 274.527 292.09 275.719 293.555 275.719C295.021 275.719 296.213 274.527 296.213 273.061C296.213 271.597 295.021 270.404 293.555 270.404ZM293.555 277.052C291.355 277.052 289.565 275.263 289.565 273.061C289.565 270.861 291.355 269.071 293.555 269.071C295.755 269.071 297.546 270.861 297.546 273.061C297.546 275.263 295.755 277.052 293.555 277.052Z" fill="#111111"/>
<path d="M307.83 455.258C307.248 455.258 306.714 454.873 306.548 454.286C306.353 453.591 306.746 452.866 307.436 452.651C308.788 452.231 309.766 451.963 310.613 451.782C311.306 451.627 312 452.054 312.184 452.742C312.365 453.43 311.976 454.139 311.298 454.355C310.376 454.649 309.288 454.93 308.16 455.217C308.05 455.245 307.94 455.258 307.83 455.258Z" fill="#E06A4B"/>
<path d="M307.832 453.925C308.876 453.659 309.837 453.406 310.682 453.146C310.689 453.142 310.696 453.137 310.702 453.133C309.836 453.329 308.874 453.602 307.832 453.925Z" fill="#FFA485"/>
<path d="M416.066 404.756L398.441 408.256C396.343 406.861 385.483 404.174 383.303 402.977C383.303 402.977 383.197 402.965 382.998 402.946L381.875 401.113C381.875 401.113 375.025 390.396 379.899 377.728C384.773 365.061 359.675 365.476 357.593 384.461C355.507 403.446 352.158 404.298 352.158 404.298C352.158 404.298 350.654 406.228 344.402 406.866C342.905 406.888 341.381 406.905 339.893 406.954C334.615 407.293 333.167 407.36 326.986 407.637C314.001 409.161 292.277 409.04 295.261 425.912C296.797 431.68 301.537 432.53 306.415 431.814C299.766 434.152 293.814 438.226 297.238 446.302C299.279 454.04 306.382 453.572 313.298 451.729C312.362 452.138 311.485 452.604 310.703 453.133C310.763 453.118 310.834 453.098 310.894 453.085C310.829 453.106 310.75 453.125 310.682 453.146C308.039 454.941 306.514 457.506 307.723 461.444C309.461 470.898 318.485 471.173 325.994 468.97C319.545 473.172 327.941 483.026 338.011 482.753C352.153 483.089 366.173 483.365 380.318 483.981C390.303 484.416 399.749 483.825 408.499 478.856L419.27 479.174L416.066 404.756Z" fill="#FFA485"/>
<g opacity="0.360001">
<path d="M353.825 402.093C352.861 404.114 352.158 404.298 352.158 404.298C352.158 404.298 350.52 406.422 343.476 406.953L343.493 406.993L373.81 407.314C373.81 407.314 363.708 404.511 353.825 402.093Z" fill="#E06A4B"/>
</g>
<path d="M406.781 484.193L425.993 483.993C427.81 483.973 429.268 482.485 429.249 480.668L428.45 404.554C428.432 402.736 426.944 401.278 425.128 401.298L405.914 401.5C404.097 401.518 402.641 403.006 402.658 404.824L403.457 480.938C403.476 482.756 404.965 484.213 406.781 484.193Z" fill="white"/>
<path d="M425.164 401.965H425.136L405.92 402.167C404.474 402.181 403.31 403.371 403.325 404.817L404.124 480.932C404.132 481.632 404.412 482.288 404.912 482.777C405.405 483.261 406.056 483.527 406.745 483.527C406.756 483.527 406.774 483.525 406.774 483.527L425.986 483.327C426.688 483.319 427.344 483.039 427.833 482.539C428.324 482.037 428.589 481.376 428.581 480.676L427.784 404.56C427.777 403.86 427.497 403.204 426.997 402.715C426.504 402.229 425.853 401.965 425.164 401.965ZM406.745 484.86C405.704 484.86 404.724 484.46 403.978 483.731C403.224 482.992 402.802 482.001 402.79 480.945L401.992 404.829C401.981 403.773 402.382 402.776 403.122 402.021C403.861 401.267 404.85 400.844 405.908 400.833L425.121 400.632C426.214 400.628 427.174 401.021 427.929 401.761C428.685 402.5 429.106 403.491 429.117 404.548L429.914 480.661C429.926 481.717 429.525 482.716 428.786 483.471C428.046 484.225 427.057 484.648 426.001 484.66L406.788 484.86H406.789H406.745Z" fill="#111111"/>
<path d="M442.242 492.282C440.376 492.282 438.614 492.17 436.96 491.942C432.184 491.287 428.582 487.118 428.582 482.244V480.668C428.582 480.3 428.88 480.002 429.248 480.002C429.616 480.002 429.915 480.3 429.915 480.668V482.244C429.915 486.455 433.022 490.056 437.143 490.622C442.711 491.386 449.591 490.814 457.59 488.92C457.948 488.83 458.306 489.056 458.391 489.415C458.476 489.772 458.255 490.132 457.896 490.216C452.091 491.591 446.848 492.282 442.242 492.282Z" fill="#111111"/>
<path d="M427.285 402.759C426.917 402.759 426.618 402.461 426.618 402.093V396.789C426.618 394.95 427.358 393.243 428.701 391.986C430.046 390.725 431.805 390.09 433.649 390.221C451.11 391.375 493.986 391.997 514.853 372.743C515.123 372.494 515.545 372.51 515.794 372.782C516.043 373.053 516.027 373.474 515.757 373.723C494.51 393.327 451.197 392.721 433.561 391.551C432.085 391.451 430.687 391.954 429.611 392.959C428.541 393.961 427.951 395.322 427.951 396.789V402.093C427.951 402.461 427.653 402.759 427.285 402.759Z" fill="#111111"/>
<path d="M472.42 388.42C472.07 388.42 471.776 388.146 471.755 387.793C470.658 369.428 455.348 355.596 442.698 347.225C442.392 347.022 442.307 346.609 442.51 346.301C442.711 345.997 443.127 345.908 443.435 346.114C456.336 354.65 471.955 368.797 473.086 387.713C473.108 388.081 472.828 388.396 472.46 388.418C472.447 388.42 472.434 388.42 472.42 388.42Z" fill="#111111"/>
<path d="M305.154 433.285C304.51 433.285 303.944 432.817 303.84 432.161C303.724 431.435 304.218 430.752 304.946 430.636L325.694 427.328C326.422 427.209 327.105 427.708 327.221 428.435C327.337 429.161 326.842 429.845 326.114 429.961L305.365 433.268C305.294 433.28 305.224 433.285 305.154 433.285Z" fill="#E06A4B"/>
<path d="M313.297 453.063C312.698 453.063 312.154 452.656 312.003 452.048C311.826 451.333 312.265 450.611 312.979 450.435L329.97 446.243C330.686 446.061 331.407 446.503 331.583 447.217C331.761 447.932 331.323 448.655 330.607 448.831L313.617 453.024C313.51 453.051 313.402 453.063 313.297 453.063Z" fill="#E06A4B"/>
<path d="M325.092 471.028C324.512 471.028 323.98 470.648 323.812 470.061C323.609 469.354 324.017 468.616 324.727 468.413L341.033 463.733C341.736 463.533 342.479 463.938 342.681 464.648C342.885 465.354 342.476 466.093 341.768 466.296L325.46 470.976C325.339 471.01 325.215 471.028 325.092 471.028Z" fill="#E06A4B"/>
<path d="M179.618 438.334C140.045 438.334 107.667 405.956 107.667 366.383V312.104C107.667 272.531 140.045 240.152 179.618 240.152C219.191 240.152 251.57 272.531 251.57 312.104V366.383C251.57 405.956 219.191 438.334 179.618 438.334Z" fill="#009DEE"/>
<path d="M179.618 240.819C140.311 240.819 108.334 272.797 108.334 312.105V366.383C108.334 405.689 140.311 437.667 179.618 437.667C218.925 437.667 250.903 405.689 250.903 366.383V312.105C250.903 272.797 218.925 240.819 179.618 240.819ZM179.618 439.001C139.577 439.001 107.001 406.425 107.001 366.383V312.105C107.001 272.063 139.577 239.486 179.618 239.486C219.659 239.486 252.237 272.063 252.237 312.105V366.383C252.237 406.425 219.659 439.001 179.618 439.001Z" fill="#5C69AB"/>
<path d="M179.618 240.819C140.311 240.819 108.334 272.797 108.334 312.105V366.383C108.334 405.689 140.311 437.667 179.618 437.667C218.925 437.667 250.903 405.689 250.903 366.383V312.105C250.903 272.797 218.925 240.819 179.618 240.819ZM179.618 439.001C139.577 439.001 107.001 406.425 107.001 366.383V312.105C107.001 272.063 139.577 239.486 179.618 239.486C219.659 239.486 252.237 272.063 252.237 312.105V366.383C252.237 406.425 219.659 439.001 179.618 439.001Z" fill="#111111"/>
<path d="M173.038 373.233H143.143C120.113 373.233 101.27 354.391 101.27 331.36V301.465C101.27 261.992 133.566 229.697 173.038 229.697H202.162C225.617 229.697 244.806 248.887 244.806 272.34V301.465C244.806 340.937 212.51 373.233 173.038 373.233Z" fill="white"/>
<path d="M173.038 230.364C133.833 230.364 101.937 262.26 101.937 301.465V331.36C101.937 354.081 120.422 372.566 143.143 372.566H173.038C212.243 372.566 244.139 340.67 244.139 301.465V272.341C244.139 249.196 225.309 230.364 202.162 230.364H173.038ZM173.038 373.9H143.143C119.686 373.9 100.603 354.817 100.603 331.36V301.465C100.603 261.525 133.097 229.03 173.038 229.03H202.162C226.043 229.03 245.473 248.46 245.473 272.341V301.465C245.473 341.405 212.979 373.9 173.038 373.9Z" fill="#111111"/>
<path d="M188.845 181.181C184.851 170.307 182.932 169.211 179.619 158.109C173.868 138.848 176.588 115.943 180.392 108.557C185.789 98.0787 195.779 91.612 203.981 94.2947C212.052 96.936 212.568 143.681 217.797 153.752C222.539 162.877 225.035 173.581 229.123 183.017C230.671 186.592 232.236 190.225 232.729 194.088C232.929 195.661 235.56 233.352 238.231 272C241.384 317.609 205.281 356.365 159.564 356.449L126.719 356.511C120.103 356.524 114.945 350.344 116.615 343.943C116.748 343.432 116.912 342.964 117.115 342.553C103.372 328.947 90.6159 314.343 78.9813 298.895C137.159 288.596 178.532 288.907 181.721 172.453" fill="#FFA485"/>
<g opacity="0.429993">
<path d="M192.366 297.52L181.902 195.143L179.618 289.216C146.527 288.285 130.901 292.659 86.6941 283.996L85.9581 303.301C91.2994 309.719 96.8447 315.979 102.603 322.055L170.819 320.779C183.694 320.54 193.622 309.82 192.366 297.52Z" fill="#E06A4B"/>
</g>
<path d="M117.811 344.313H129.421C130.467 344.313 131.469 343.394 131.421 342.313C131.372 341.229 130.541 340.313 129.421 340.313H117.811C116.764 340.313 115.763 341.233 115.811 342.313C115.86 343.397 116.689 344.313 117.811 344.313Z" fill="#E06A4B"/>
<path d="M224.124 180.94C224.119 181.063 224.103 181.188 224.099 181.311C224.089 181.565 224.176 180.912 224.101 181.292C224.053 181.533 224.004 181.773 223.936 182.01C223.92 182.069 223.709 182.715 223.701 182.71C223.8 182.485 223.819 182.44 223.759 182.575C223.729 182.642 223.699 182.711 223.665 182.777C223.624 182.866 223.579 182.956 223.533 183.044C223.419 183.264 223.293 183.48 223.161 183.691C223.096 183.796 222.859 184.288 222.739 184.309C222.885 184.122 222.913 184.087 222.821 184.201C222.776 184.26 222.728 184.317 222.68 184.376C222.616 184.452 222.551 184.528 222.485 184.602C222.303 184.808 222.113 185.005 221.916 185.197C221.728 185.381 221.532 185.558 221.331 185.73C221.231 185.817 221.127 185.901 221.025 185.987C220.735 186.228 221.185 185.876 220.989 186.016C220.556 186.325 220.124 186.631 219.671 186.912C218.74 187.489 217.768 187.995 216.789 188.483C215.849 188.951 215.512 190.353 216.071 191.218C216.689 192.178 217.804 192.437 218.807 191.937C221.013 190.836 223.22 189.597 224.956 187.815C226.775 185.948 227.992 183.564 228.124 180.94C228.177 179.893 227.167 178.893 226.124 178.94C224.996 178.991 224.18 179.819 224.124 180.94Z" fill="#E06A4B"/>
<path d="M173.709 318.207H43.4446C37.9713 318.207 33.5353 313.771 33.5353 308.298V45.8566C33.5353 40.3833 37.9726 35.9473 43.4446 35.9473H173.709C179.181 35.9473 183.618 40.3833 183.618 45.8566V308.298C183.618 313.771 179.181 318.207 173.709 318.207Z" fill="#111111"/>
<path d="M178.517 281.058L38.6225 281.051L38.6358 61.5096L178.532 61.5176L178.517 281.058Z" fill="white"/>
<path d="M141.552 106.482C141.552 124.694 126.788 139.457 108.578 139.457C90.3657 139.457 75.6017 124.694 75.6017 106.482C75.6017 88.2701 90.3657 73.5074 108.578 73.5074C126.788 73.5074 141.552 88.2701 141.552 106.482Z" fill="#00E272"/>
<path d="M108.577 74.1736C90.7623 74.1736 76.269 88.6669 76.269 106.482C76.269 124.296 90.7623 138.79 108.577 138.79C126.392 138.79 140.885 124.296 140.885 106.482C140.885 88.6669 126.392 74.1736 108.577 74.1736ZM108.577 140.123C90.0263 140.123 74.9357 125.032 74.9357 106.482C74.9357 87.9323 90.0263 72.8403 108.577 72.8403C127.128 72.8403 142.218 87.9323 142.218 106.482C142.218 125.032 127.128 140.123 108.577 140.123Z" fill="#00E272"/>
<path d="M108.577 87.3233C104.173 87.3233 100.59 90.906 100.59 95.3086C100.59 99.7126 104.173 103.295 108.577 103.295C112.981 103.295 116.564 99.7126 116.564 95.3086C116.564 90.906 112.981 87.3233 108.577 87.3233ZM108.577 106.006C102.678 106.006 97.881 101.209 97.881 95.3086C97.881 89.4113 102.678 84.614 108.577 84.614C114.476 84.614 119.273 89.4113 119.273 95.3086C119.273 101.209 114.476 106.006 108.577 106.006Z" fill="white"/>
<path d="M105.52 106.771C99.0231 106.771 93.7391 112.056 93.7391 118.553C93.7391 119.759 94.7205 120.74 95.9245 120.74H121.23C122.434 120.74 123.415 119.759 123.415 118.553V116.903C123.415 111.316 118.871 106.771 113.284 106.771H105.52ZM121.23 123.449H95.9245C93.2258 123.449 91.0285 121.252 91.0285 118.553C91.0285 110.561 97.5311 104.06 105.52 104.06H113.284C120.364 104.06 126.124 109.823 126.124 116.903V118.553C126.124 121.252 123.928 123.449 121.23 123.449Z" fill="white"/>
<path d="M83.9826 175.289H49.8359C48.6399 175.289 47.6693 174.319 47.6693 173.123V162.581C47.6693 161.384 48.6399 160.415 49.8359 160.415H83.9826C85.1786 160.415 86.1493 161.384 86.1493 162.581V173.123C86.1493 174.319 85.1786 175.289 83.9826 175.289Z" fill="#111111"/>
<path d="M79.7366 166.493H53.6686C53.2993 166.493 53.002 166.194 53.002 165.826C53.002 165.458 53.2993 165.16 53.6686 165.16H79.7366C80.1046 165.16 80.4033 165.458 80.4033 165.826C80.4033 166.194 80.1046 166.493 79.7366 166.493Z" fill="white"/>
<path d="M76.1291 171.045H57.3985C57.0291 171.045 56.7318 170.746 56.7318 170.378C56.7318 170.01 57.0291 169.711 57.3985 169.711H76.1291C76.4971 169.711 76.7958 170.01 76.7958 170.378C76.7958 170.746 76.4971 171.045 76.1291 171.045Z" fill="white"/>
<path d="M125.595 175.289H91.94C90.744 175.289 89.7733 174.319 89.7733 173.123V162.581C89.7733 161.384 90.744 160.415 91.94 160.415H125.595C126.791 160.415 127.761 161.384 127.761 162.581V173.123C127.761 174.319 126.791 175.289 125.595 175.289Z" fill="#111111"/>
<path d="M121.349 166.493H95.2812C94.9132 166.493 94.6145 166.194 94.6145 165.826C94.6145 165.458 94.9132 165.16 95.2812 165.16H121.349C121.717 165.16 122.016 165.458 122.016 165.826C122.016 166.194 121.717 166.493 121.349 166.493Z" fill="white"/>
<path d="M118.832 171.045H100.101C99.7315 171.045 99.4342 170.746 99.4342 170.378C99.4342 170.01 99.7315 169.711 100.101 169.711H118.832C119.2 169.711 119.498 170.01 119.498 170.378C119.498 170.746 119.2 171.045 118.832 171.045Z" fill="white"/>
<path d="M167.318 175.289H133.067C131.871 175.289 130.901 174.319 130.901 173.123V162.581C130.901 161.384 131.871 160.415 133.067 160.415H167.318C168.514 160.415 169.485 161.384 169.485 162.581V173.123C169.485 174.319 168.514 175.289 167.318 175.289Z" fill="#111111"/>
<path d="M163.227 166.493H137.159C136.789 166.493 136.492 166.194 136.492 165.826C136.492 165.458 136.789 165.16 137.159 165.16H163.227C163.595 165.16 163.893 165.458 163.893 165.826C163.893 166.194 163.595 166.493 163.227 166.493Z" fill="white"/>
<path d="M160.709 171.045H141.978C141.609 171.045 141.311 170.746 141.311 170.378C141.311 170.01 141.609 169.711 141.978 169.711H160.709C161.077 169.711 161.375 170.01 161.375 170.378C161.375 170.746 161.077 171.045 160.709 171.045Z" fill="white"/>
<path d="M168.018 214.241H47.67V189.658H168.018V214.241Z" fill="#00E272"/>
<path d="M56.3094 197.574C55.6494 197.574 55.1121 198.111 55.1121 198.771V205.286C55.1121 205.946 55.6494 206.483 56.3094 206.483H62.8241C63.4841 206.483 64.0214 205.946 64.0214 205.286V198.771C64.0214 198.111 63.4841 197.574 62.8241 197.574H56.3094ZM62.8241 207.816H56.3094C54.9147 207.816 53.7787 206.682 53.7787 205.286V198.771C53.7787 197.376 54.9147 196.24 56.3094 196.24H62.8241C64.2187 196.24 65.3547 197.376 65.3547 198.771V205.286C65.3547 206.682 64.2187 207.816 62.8241 207.816Z" fill="#F6EEE3"/>
<path d="M115.429 198.992H73.3546C72.9866 198.992 72.688 198.693 72.688 198.325C72.688 197.957 72.9866 197.658 73.3546 197.658H115.429C115.797 197.658 116.096 197.957 116.096 198.325C116.096 198.693 115.797 198.992 115.429 198.992Z" fill="#F6EEE3"/>
<path d="M135.757 203.562H73.3554C72.9861 203.562 72.6888 203.264 72.6888 202.896C72.6888 202.528 72.9861 202.229 73.3554 202.229H135.757C136.125 202.229 136.423 202.528 136.423 202.896C136.423 203.264 136.125 203.562 135.757 203.562Z" fill="#F6EEE3"/>
<path d="M168.018 263.406H47.67V238.824H168.018V263.406Z" fill="#00E272"/>
<path d="M56.3094 246.739C55.6494 246.739 55.1121 247.277 55.1121 247.937V254.451C55.1121 255.111 55.6494 255.649 56.3094 255.649H62.8241C63.4841 255.649 64.0214 255.111 64.0214 254.451V247.937C64.0214 247.277 63.4841 246.739 62.8241 246.739H56.3094ZM62.8241 256.982H56.3094C54.9147 256.982 53.7787 255.847 53.7787 254.451V247.937C53.7787 246.542 54.9147 245.406 56.3094 245.406H62.8241C64.2187 245.406 65.3547 246.542 65.3547 247.937V254.451C65.3547 255.847 64.2187 256.982 62.8241 256.982Z" fill="#F6EEE3"/>
<path d="M115.429 248.157H73.3546C72.9866 248.157 72.688 247.858 72.688 247.49C72.688 247.122 72.9866 246.824 73.3546 246.824H115.429C115.797 246.824 116.096 247.122 116.096 247.49C116.096 247.858 115.797 248.157 115.429 248.157Z" fill="#F6EEE3"/>
<path d="M135.757 252.727H73.3554C72.9861 252.727 72.6888 252.428 72.6888 252.06C72.6888 251.692 72.9861 251.394 73.3554 251.394H135.757C136.125 251.394 136.423 251.692 136.423 252.06C136.423 252.428 136.125 252.727 135.757 252.727Z" fill="#F6EEE3"/>
<path d="M168.018 238.824H47.67V214.241H168.018V238.824Z" fill="#00B8D6"/>
<path d="M56.3094 222.157C55.6494 222.157 55.1121 222.694 55.1121 223.354V229.869C55.1121 230.529 55.6494 231.066 56.3094 231.066H62.8241C63.4841 231.066 64.0214 230.529 64.0214 229.869V223.354C64.0214 222.694 63.4841 222.157 62.8241 222.157H56.3094ZM62.8241 232.399H56.3094C54.9147 232.399 53.7787 231.265 53.7787 229.869V223.354C53.7787 221.959 54.9147 220.823 56.3094 220.823H62.8241C64.2187 220.823 65.3547 221.959 65.3547 223.354V229.869C65.3547 231.265 64.2187 232.399 62.8241 232.399Z" fill="#F6EEE3"/>
<path d="M115.429 223.575H73.3546C72.9866 223.575 72.688 223.276 72.688 222.908C72.688 222.54 72.9866 222.241 73.3546 222.241H115.429C115.797 222.241 116.096 222.54 116.096 222.908C116.096 223.276 115.797 223.575 115.429 223.575Z" fill="#F6EEE3"/>
<path d="M135.757 228.145H73.3554C72.9861 228.145 72.6888 227.846 72.6888 227.478C72.6888 227.11 72.9861 226.812 73.3554 226.812H135.757C136.125 226.812 136.423 227.11 136.423 227.478C136.423 227.846 136.125 228.145 135.757 228.145Z" fill="#F6EEE3"/>
<g opacity="0.889999">
<path d="M108.575 44.5069C108.184 44.5069 107.818 44.6589 107.54 44.9363C107.263 45.2136 107.11 45.5816 107.111 45.9723C107.11 46.3643 107.263 46.7323 107.54 47.0109C107.818 47.2869 108.206 47.4456 108.58 47.4389C108.746 47.4389 108.906 47.4123 109.058 47.3589C109.267 47.2856 109.454 47.1683 109.614 47.0083C109.89 46.7323 110.043 46.3643 110.043 45.9723C110.044 45.5816 109.891 45.2136 109.614 44.9349C109.336 44.6589 108.968 44.5069 108.576 44.5069H108.575ZM109.276 47.9883H109.29H109.276ZM108.582 48.7723H108.575C107.83 48.7723 107.127 48.4816 106.598 47.9536C106.067 47.4216 105.776 46.7189 105.778 45.9723C105.776 45.2269 106.068 44.5229 106.598 43.9936C107.127 43.4643 107.828 43.1736 108.575 43.1736C109.322 43.2309 110.027 43.4629 110.556 43.9923C111.086 44.5243 111.378 45.2269 111.376 45.9736C111.376 46.7216 111.084 47.4243 110.556 47.9523C110.252 48.2563 109.895 48.4789 109.495 48.6176C109.202 48.7203 108.895 48.7723 108.582 48.7723Z" fill="white"/>
</g>
<g opacity="0.889999">
<path d="M96.7548 52.7283C96.5014 52.7283 96.2641 52.8269 96.0868 53.0056C95.9041 53.1869 95.8054 53.4256 95.8054 53.6803C95.8054 54.2056 96.2321 54.6323 96.7561 54.6323L120.395 54.6336C120.501 54.6336 120.605 54.6163 120.705 54.5829C121.089 54.4496 121.348 54.0869 121.348 53.6803C121.348 53.4269 121.249 53.1883 121.069 53.0096C120.889 52.8283 120.651 52.7296 120.397 52.7296H120.396L96.7574 52.7283H96.7548ZM120.923 55.2123H120.936H120.923ZM120.399 55.9683L96.7561 55.9656C95.4974 55.9656 94.4721 54.9403 94.4721 53.6803C94.4721 53.0683 94.7108 52.4936 95.1441 52.0616C95.5748 51.6309 96.1921 51.4203 96.7601 51.3949L120.395 51.3963H120.399C121.008 51.3963 121.581 51.6336 122.012 52.0656C122.443 52.4949 122.681 53.0683 122.681 53.6803C122.68 54.6549 122.06 55.5229 121.141 55.8416C121.141 55.8429 121.14 55.8429 121.14 55.8429C120.901 55.9243 120.652 55.9669 120.399 55.9683Z" fill="white"/>
</g>
<path d="M95.9435 295.541C93.7115 295.541 91.8969 297.355 91.8969 299.587C91.8969 301.819 93.7115 303.635 95.9435 303.635H121.209C123.441 303.635 125.257 301.819 125.257 299.587C125.257 297.355 123.441 295.541 121.209 295.541H95.9435ZM121.209 304.969H95.9435C92.9769 304.969 90.5635 302.555 90.5635 299.587C90.5635 296.622 92.9769 294.207 95.9435 294.207H121.209C124.176 294.207 126.59 296.622 126.59 299.587C126.59 302.555 124.176 304.969 121.209 304.969Z" fill="white"/>
<path d="M44.9826 195.741L30.1653 191.841C22.1826 189.74 17.416 181.567 19.516 173.584C21.6173 165.603 29.7906 160.835 37.7733 162.936L52.5906 166.836C60.5733 168.937 65.34 177.111 63.2386 185.093C61.1386 193.075 52.964 197.843 44.9826 195.741Z" fill="#FFA485"/>
<path d="M27.3394 120.39L24.3528 118.894C16.0488 114.734 5.94475 118.093 1.78475 126.398C-2.37524 134.702 0.984755 144.806 9.28875 148.966L34.2994 161.494V150.457V123.877L27.3394 120.39Z" fill="#FFA485"/>
<g opacity="0.429993">
<path d="M22.8726 125.924C18.7126 134.228 22.0713 144.332 30.3753 148.492L34.2993 150.457V123.876L27.3393 120.391C25.5273 121.853 23.9833 123.705 22.8726 125.924Z" fill="#E06A4B"/>
</g>
<path d="M36.7776 224.58L21.9602 220.68C13.9776 218.578 9.21089 210.405 11.3109 202.422C13.4122 194.441 21.5856 189.674 29.5682 191.774L44.3869 195.676C52.3682 197.776 57.1349 205.949 55.0336 213.932C52.9336 221.913 44.7589 226.681 36.7776 224.58Z" fill="#FFA485"/>
<path d="M34.9189 247.897L22.5749 244.647C15.9256 242.898 11.8682 236.413 13.5136 230.165C15.1589 223.915 21.8829 220.269 28.5309 222.018L40.8749 225.267C47.5242 227.018 51.5816 233.502 49.9362 239.751C48.2909 246.001 41.5682 249.647 34.9189 247.897Z" fill="#FFA485"/>
<path d="M28.6623 193.19C30.1183 194.077 31.7424 194.51 33.389 194.88C35.1863 195.281 36.985 195.678 38.7824 196.078C42.445 196.892 46.1077 197.705 49.7704 198.518C52.2784 199.076 53.3504 195.22 50.833 194.662C47.3037 193.877 43.7743 193.093 40.2463 192.309C38.5143 191.925 36.7823 191.54 35.0517 191.156C33.5463 190.821 32.0143 190.548 30.681 189.737C28.477 188.394 26.465 191.853 28.6623 193.19Z" fill="#E06A4B"/>
<path d="M26.2301 223.93C32.7274 225.003 38.9968 227.159 45.5821 227.734C46.6594 227.827 47.5821 226.747 47.5821 225.734C47.5821 224.573 46.6621 223.827 45.5821 223.734C39.3701 223.193 33.4274 221.086 27.2928 220.073C26.2288 219.898 25.1408 220.351 24.8328 221.47C24.5701 222.427 25.1581 223.753 26.2301 223.93Z" fill="#E06A4B"/>
</svg>
