<svg width="203" height="194" viewBox="0 0 203 194" fill="none" xmlns="http://www.w3.org/2000/svg">
<g clip-path="url(#clip0_99_88)">
<g opacity="0.300003">
<path d="M9.15727 67.0735C9.15727 67.0735 26.1961 8.00138 90.9055 0.549772C155.615 -6.90183 239.879 60.5534 182.902 151.949C135.844 227.434 47.0806 185.637 21.3785 152.378C3.14855 128.789 0.529379 86.6827 9.15727 67.0735Z" fill="#B4B4B4"/>
</g>
<g opacity="0.300003">
<path d="M138.104 177.224L136.227 143.728L76.1536 155.617L72.5957 180.629C85.1207 189.192 106.216 189.287 106.216 189.287L109.215 168.906L115.002 188.381C126.948 186.264 136.194 179.323 138.104 177.224Z" fill="#352836"/>
</g>
<path d="M88.5798 43.7539C88.5798 43.7539 93.1465 67.425 89.6236 69.376C86.1008 71.3267 67.8688 59.4694 64.5723 73.9282C60.6576 91.096 106.325 91.8765 106.325 91.8765L136.595 85.3733C136.595 85.3733 136.595 66.9049 128.114 66.2544C119.633 65.6044 112.457 76.0089 112.196 60.0116C111.935 44.0139 88.5798 43.7539 88.5798 43.7539Z" fill="#9F9E9E"/>
<path d="M113.646 67.7077C112.777 66.4384 112.263 64.0801 112.196 60.0117C111.935 44.014 88.5801 43.7539 88.5801 43.7539C88.5801 43.7539 89.359 47.7929 90.0252 52.6708C90.5801 53.7127 97.7131 69.5061 113.646 67.7077Z" fill="#888787"/>
<path d="M85.1875 33.219C85.1875 33.219 81.3833 9.55562 98.1584 6.55404C112.457 3.99595 119.572 12.4412 121.228 28.6745C122.884 44.9073 126.473 58.9394 114.88 61.6905C103.288 64.442 88.2237 56.3306 85.1875 33.219Z" fill="#9F9E9E"/>
<path d="M88.4278 33.9019C88.4278 33.9019 87.0477 28.3993 83.4594 29.775C79.8715 31.1503 81.5275 46.5582 89.2558 46.5582C96.9842 46.5582 88.4278 33.9019 88.4278 33.9019Z" fill="#9F9E9E"/>
<path d="M113.501 56.76C110.402 56.292 110.63 50.7777 110.63 50.7777L108.281 50.3876C108.281 50.3876 108.934 56.76 104.237 55.9795C99.5397 55.1994 102.802 46.7451 102.802 46.7451C105.672 47.2656 109.978 45.575 109.978 45.575C114.284 47.6556 117.024 47.7856 117.024 47.7856C117.024 47.7856 117.807 57.4105 113.501 56.76ZM111.022 42.5834C111.022 42.5834 101.367 40.3723 99.2788 43.6239C97.1911 46.8755 92.3635 59.4911 103.454 62.2227C110.411 63.9355 119.894 62.7428 119.894 55.3294C119.894 47.9156 123.026 41.4128 111.022 42.5834Z" fill="#D8CDD9"/>
<path d="M112.848 26.5858C112.848 26.5858 112.837 26.5342 112.828 26.4404C112.824 26.3494 112.803 26.2058 112.811 26.04C112.81 25.698 112.852 25.2219 113.003 24.6823C113.154 24.1433 113.413 23.5385 113.841 22.9424C114.057 22.6425 114.31 22.3471 114.636 22.0744C114.956 21.8017 115.336 21.544 115.807 21.3596C116.269 21.1766 116.824 21.0588 117.39 21.1204C117.946 21.1729 118.488 21.3754 118.868 21.6622C119.271 21.9331 119.54 22.2629 119.747 22.5718C119.944 22.8866 120.09 23.1897 120.17 23.4755C120.21 23.6201 120.252 23.7537 120.281 23.8842C120.3 24.0178 120.322 24.1401 120.332 24.2588C120.364 24.4912 120.358 24.7014 120.348 24.8726C120.346 25.0407 120.319 25.1815 120.31 25.2721C120.298 25.3646 120.285 25.4153 120.285 25.4153C120.285 25.4153 120.24 25.3913 120.154 25.3464C120.076 25.298 119.947 25.2364 119.816 25.1458C119.683 25.0552 119.509 24.9569 119.329 24.8463C119.153 24.7299 118.96 24.6085 118.756 24.4943C118.657 24.4318 118.56 24.3702 118.452 24.3245C118.347 24.2787 118.255 24.2031 118.15 24.175C117.952 24.0885 117.759 24.0219 117.609 24.0101C117.453 23.9829 117.355 24.0182 117.264 24.0359C117.177 24.0513 117.07 24.0894 116.918 24.1487C116.617 24.252 116.18 24.5251 115.739 24.8028C115.258 25.1222 114.81 25.4207 114.425 25.6762C114.007 25.9494 113.618 26.1791 113.326 26.3371C113.189 26.421 113.058 26.4767 112.98 26.5215C112.894 26.5636 112.848 26.5858 112.848 26.5858Z" fill="#D8CDD9"/>
<path d="M108.412 25.0395C108.412 25.0395 108.151 24.9194 107.694 24.7088C107.249 24.5004 106.627 24.2096 105.914 23.8925C105.199 23.579 104.385 23.2433 103.548 22.9928C103.129 22.8642 102.705 22.7781 102.288 22.697C101.87 22.6463 101.459 22.5964 101.058 22.6173C100.658 22.6322 100.265 22.673 99.88 22.7749C99.4924 22.8633 99.1133 23.01 98.7339 23.1677C98.5444 23.2501 98.3694 23.3616 98.1781 23.4427C97.994 23.54 97.8236 23.6587 97.6414 23.7561C97.4582 23.8526 97.3019 23.9863 97.1301 24.0909C96.9552 24.1942 96.7979 24.312 96.6457 24.4297C96.4866 24.5434 96.3344 24.6526 96.1894 24.7568C96.0463 24.8691 95.9104 24.9761 95.7827 25.0766C95.5178 25.2746 95.2819 25.4531 95.0933 25.6084C94.7043 25.9115 94.4512 26.08 94.4512 26.08C94.4512 26.08 94.4784 25.7892 94.5807 25.2886C94.6261 25.0354 94.7116 24.7409 94.832 24.408C94.8893 24.2395 94.9574 24.0637 95.0306 23.8762C95.1142 23.695 95.2115 23.5083 95.311 23.309C95.5046 22.909 95.7895 22.5099 96.1072 22.0923C96.2785 21.8907 96.4585 21.6864 96.6557 21.4834C96.8638 21.2886 97.0838 21.0961 97.321 20.909C97.8104 20.5557 98.3626 20.2123 98.9956 20.0003C99.6151 19.7521 100.303 19.6551 100.978 19.618C101.657 19.6066 102.321 19.6982 102.942 19.864C103.554 20.0411 104.126 20.2784 104.629 20.5675C105.641 21.1387 106.411 21.8535 106.976 22.5226C107.54 23.1958 107.905 23.8254 108.122 24.2875C108.337 24.7509 108.412 25.0395 108.412 25.0395Z" fill="#D8CDD9"/>
<path d="M99.5399 31.9834C99.5399 33.4561 99.0727 34.6497 98.496 34.6497C97.9198 34.6497 97.4521 33.4561 97.4521 31.9834C97.4521 30.5107 97.9198 29.317 98.496 29.317C99.0727 29.317 99.5399 30.5107 99.5399 31.9834Z" fill="#352836"/>
<path d="M116.371 31.6583C116.371 33.131 115.904 34.3246 115.328 34.3246C114.751 34.3246 114.284 33.131 114.284 31.6583C114.284 30.1856 114.751 28.9919 115.328 28.9919C115.904 28.9919 116.371 30.1856 116.371 31.6583Z" fill="#352836"/>
<path d="M112.457 28.4067C112.599 28.6667 112.724 28.9354 112.848 29.2067C112.979 29.4763 113.075 29.7558 113.186 30.0325C113.291 30.3102 113.41 30.5857 113.49 30.8715L113.757 31.7231C113.945 32.2903 114.055 32.8751 114.196 33.4545C114.258 33.7458 114.327 34.0362 114.383 34.3288L114.517 35.2126C114.587 35.8038 114.701 36.3918 114.735 36.987C114.773 37.5818 114.795 38.1779 114.826 38.7727C114.838 39.0703 114.867 39.368 114.841 39.666L114.8 40.5594C114.776 41.1546 114.736 41.7485 114.698 42.341L114.683 42.6001L114.433 42.6069C113.757 42.6241 113.08 42.6268 112.403 42.6264C111.726 42.6237 111.048 42.6146 110.369 42.5834C111.039 42.4656 111.71 42.3695 112.381 42.2803C113.052 42.1929 113.724 42.1091 114.396 42.0398L114.13 42.3052C114.119 41.7186 114.105 41.1333 114.108 40.5494L114.106 39.6737C114.114 39.382 114.085 39.0907 114.068 38.7994C114.032 38.2169 113.988 37.6352 113.96 37.0522C113.936 36.4692 113.833 35.893 113.774 35.3123L113.683 34.4407C113.643 34.1517 113.588 33.8649 113.541 33.5768L113.407 32.7093C113.371 32.4185 113.307 32.1331 113.247 31.8468C113.134 31.2724 113.031 30.6935 112.889 30.1236C112.817 29.8396 112.764 29.5469 112.685 29.2642C112.606 28.982 112.544 28.6903 112.457 28.4067Z" fill="#888787"/>
<path d="M103.193 48.5662C103.193 48.5662 103.923 48.0715 105.156 47.5986C105.464 47.479 105.801 47.3594 106.165 47.2534C106.529 47.1483 106.915 47.0373 107.323 46.9621C107.73 46.881 108.156 46.8076 108.593 46.7691C109.03 46.7352 109.478 46.7075 109.927 46.7229C110.376 46.7361 110.825 46.7913 111.264 46.8615C111.702 46.9426 112.126 47.0604 112.524 47.2099C112.724 47.2833 112.92 47.3558 113.101 47.4532C113.287 47.5388 113.462 47.6362 113.627 47.7395C113.797 47.835 113.954 47.9401 114.098 48.052C114.247 48.158 114.384 48.2681 114.506 48.3845C114.767 48.5988 114.963 48.838 115.144 49.0382C115.311 49.2511 115.447 49.4432 115.553 49.6022C115.748 49.9361 115.849 50.1268 115.849 50.1268C115.849 50.1268 115.692 49.9714 115.432 49.7C115.293 49.5746 115.125 49.4228 114.931 49.248C114.722 49.0921 114.501 48.9064 114.233 48.7401C114.105 48.6495 113.964 48.5671 113.813 48.4905C113.667 48.4072 113.516 48.3225 113.351 48.2532C113.191 48.1748 113.024 48.1028 112.846 48.0434C112.672 47.9764 112.492 47.9139 112.306 47.8613C111.937 47.7426 111.539 47.6792 111.139 47.6049C110.735 47.5487 110.321 47.5075 109.903 47.5025C109.486 47.479 109.065 47.4967 108.652 47.5198C108.24 47.5528 107.831 47.58 107.438 47.638C106.65 47.7431 105.915 47.8849 105.287 48.0253C104.032 48.3102 103.193 48.5662 103.193 48.5662Z" fill="#888787"/>
<path d="M89.1018 45.0545C88.7501 44.929 88.4038 44.7764 88.0848 44.568C87.773 44.3573 87.4445 44.1177 87.2813 43.7032C87.2477 43.5986 87.2232 43.484 87.2323 43.3671C87.2354 43.2507 87.2682 43.1342 87.3168 43.0332C87.3622 42.9286 87.4281 42.8371 87.4981 42.7578C87.5667 42.674 87.6444 42.606 87.7221 42.5376C88.0398 42.2763 88.392 42.1028 88.7451 41.9447L88.5742 42.2083C88.502 41.4785 88.3906 40.7415 88.2707 40.014C88.1543 39.2842 88.0039 38.5617 87.8344 37.8482C87.6644 37.1352 87.4604 36.4316 87.1923 35.7653C86.9296 35.1044 86.6028 34.4502 86.132 34.009C85.8975 33.792 85.6367 33.6371 85.3517 33.5936C85.2845 33.5904 85.1977 33.5669 85.1454 33.5759C85.0623 33.5841 84.935 33.5768 84.8882 33.5977C84.771 33.6208 84.6201 33.6579 84.5097 33.7381C84.272 33.8776 84.0952 34.1386 83.9825 34.4502C83.868 34.761 83.8116 35.1116 83.7866 35.4668C83.7271 36.1811 83.7953 36.9191 83.8784 37.6534C83.9684 38.3895 84.1143 39.1202 84.2743 39.8523C83.9798 39.1614 83.7594 38.4416 83.5703 37.7109C83.3804 36.9798 83.2608 36.2264 83.249 35.4473C83.2518 35.0577 83.2849 34.66 83.4017 34.2595C83.5158 33.8672 83.7339 33.4396 84.1379 33.1764C84.3315 33.036 84.5483 32.9599 84.7946 32.9087C84.9287 32.8751 84.9927 32.8851 85.095 32.8715C85.2295 32.8548 85.329 32.8783 85.4485 32.8828C85.9094 32.9345 86.3302 33.1655 86.641 33.4541C87.2709 34.0398 87.6222 34.7646 87.9194 35.4781C88.1993 36.2015 88.402 36.9395 88.5683 37.6806C88.7301 38.423 88.8437 39.1714 88.9364 39.9197C89.026 40.6704 89.0791 41.4178 89.1078 42.1775L89.115 42.3809L88.9369 42.4416C88.5992 42.5571 88.2638 42.6903 87.9871 42.8801C87.9207 42.9286 87.8526 42.9775 87.7985 43.0337C87.7403 43.0871 87.6912 43.1469 87.6544 43.2076C87.614 43.2683 87.5863 43.3331 87.5758 43.4011C87.5595 43.469 87.5667 43.5415 87.579 43.6153C87.6485 43.9184 87.913 44.2001 88.1861 44.4312C88.4683 44.6618 88.7756 44.8738 89.1018 45.0545Z" fill="#888787"/>
<path d="M116.949 67.0087C116.949 67.0087 131.788 56.5041 140.391 69.7955C148.993 83.087 155.015 120.817 155.015 120.817L146.628 138.825C146.628 138.825 136.305 137.11 131.788 116.315C127.272 95.521 116.949 67.0087 116.949 67.0087Z" fill="#B8B7B6"/>
<path d="M144.067 77.1986C150.66 93.5369 155.015 120.817 155.015 120.817L146.628 138.825C146.628 138.825 136.305 137.11 131.789 116.316C130.673 111.181 129.204 105.576 127.624 100.047C134.463 93.6646 139.793 85.5972 144.067 77.1986Z" fill="#9F9E9D"/>
<path d="M86.1147 69.1525C86.1147 69.1525 71.2752 58.6478 62.6729 71.9393C54.0703 85.2308 48.0488 122.961 48.0488 122.961L56.4361 140.969C56.4361 140.969 66.7589 139.254 71.2752 118.459C75.7919 97.6647 86.1147 69.1525 86.1147 69.1525Z" fill="#B8B7B6"/>
<path d="M58.9965 79.3423C52.4038 95.6807 48.0488 122.961 48.0488 122.961L56.4361 140.969C56.4361 140.969 66.7589 139.254 71.2752 118.459C72.3904 113.325 73.8596 107.72 75.4402 102.19C68.6007 95.8084 63.2705 87.7409 58.9965 79.3423Z" fill="#9F9E9D"/>
<path d="M86.1147 69.1525C86.1147 69.1525 94.287 81.1574 105.04 85.4451C105.04 85.4451 114.073 79.0138 117.514 67.4374C117.514 67.4374 129.52 61.456 134.719 70.4385C141.17 81.5864 141.291 170.415 141.291 170.415C141.291 170.415 132.202 181.287 118.569 183.703L112.783 164.228L109.783 184.609C109.783 184.609 82.0597 184.485 71.3065 171.623C71.3065 171.623 59.8772 83.0872 63.3183 73.6544C66.7589 64.222 74.9316 63.5787 86.1147 69.1525Z" fill="#B8B7B6"/>
<path d="M184.947 51.7325C184.947 51.7325 190.339 45.2438 187.791 45.0617C185.243 44.8795 177.456 51.7864 177.456 51.7864C177.456 51.7864 165.835 48.9923 161.646 60.6734C157.456 72.3544 184.947 51.7325 184.947 51.7325Z" fill="#888787"/>
<path d="M159.965 64.8739C159.965 64.8739 161.116 51.601 177.918 53.5869C177.918 53.5869 186.6 47.9226 192.677 48.3566L188.84 49.654C188.84 49.654 191.426 46.9274 195.504 46.0667C196.394 45.8792 197.355 45.7804 198.376 45.818C198.376 45.818 201.513 43.2925 203.108 45.7632C203.108 45.7632 189.608 58.1541 184.161 59.9253C178.714 61.6961 171.783 62.1831 169.766 65.5742C167.748 68.9654 167.927 85.672 167.927 85.672L154.85 81.2023L159.965 64.8739Z" fill="#9F9E9E"/>
<path d="M168.822 68.8444C165.551 68.4657 162.28 68.0988 158.992 67.9778L154.85 81.2022L167.926 85.672C167.926 85.672 167.812 74.8331 168.822 68.8444Z" fill="#888787"/>
<path d="M172.435 70.3297L155.445 70.7582C155.445 70.7582 134.584 127.14 141.036 135.929C147.488 144.719 172.22 140.002 172.435 70.3297Z" fill="#B8B7B6"/>
<path d="M18.3044 53.6892C18.3044 53.6892 12.912 47.2004 15.4605 47.0183C18.0086 46.8362 25.7955 53.7431 25.7955 53.7431C25.7955 53.7431 37.4162 50.949 41.6053 62.63C45.7948 74.3111 18.3044 53.6892 18.3044 53.6892Z" fill="#888787"/>
<path d="M43.2867 66.8305C43.2867 66.8305 42.1351 53.5576 25.3337 55.5436C25.3337 55.5436 16.6515 49.8793 10.5747 50.3133L14.4115 51.6107C14.4115 51.6107 11.8257 48.884 7.74754 48.0233C6.85727 47.8358 5.89612 47.737 4.87543 47.7746C4.87543 47.7746 1.73839 45.2492 0.142822 47.7198C0.142822 47.7198 13.6435 60.1107 19.0905 61.882C24.5375 63.6527 31.4688 64.1397 33.4856 67.5309C35.5029 70.922 35.3247 87.6287 35.3247 87.6287L48.4015 83.1589L43.2867 66.8305Z" fill="#9F9E9E"/>
<path d="M34.1108 69.2431C35.4624 74.637 35.3247 87.6286 35.3247 87.6286L48.4014 83.1589L44.8535 71.755C40.7635 70.7358 36.5599 69.5467 34.1108 69.2431Z" fill="#888787"/>
<path d="M30.8162 72.2863L47.8061 72.7149C47.8061 72.7149 68.6671 129.096 62.2153 137.886C55.7635 146.675 31.0311 141.959 30.8162 72.2863Z" fill="#B8B7B6"/>
</g>
<defs>
<clipPath id="clip0_99_88">
<rect width="203" height="194" fill="white"/>
</clipPath>
</defs>
</svg>
