<svg width="71" height="71" viewBox="0 0 71 71" fill="none" xmlns="http://www.w3.org/2000/svg">
<g clip-path="url(#clip0_521_1564)">
<g filter="url(#filter0_d_521_1564)">
<path d="M51.9972 24.8763V45.3651L35.4363 56.0705L18.8754 45.3651V24.8763L35.4363 14.1711L51.9972 24.8763ZM36.8164 11.5793C36.3968 11.3166 35.9208 11.1783 35.4363 11.1783C34.9518 11.1783 34.4758 11.3166 34.0562 11.5793L17.4953 22.2846C17.0757 22.5472 16.7273 22.925 16.4851 23.38C16.2428 23.8349 16.1153 24.351 16.1152 24.8763V45.3651C16.1153 45.8905 16.2428 46.4066 16.4851 46.8615C16.7273 47.3164 17.0757 47.6942 17.4953 47.9569L34.0562 58.6624C34.4758 58.9251 34.9518 59.0632 35.4363 59.0632C35.9208 59.0632 36.3968 58.9251 36.8164 58.6624L53.3773 47.9569C53.7969 47.6942 54.1455 47.3164 54.3875 46.8615C54.6296 46.4066 54.7576 45.8905 54.7576 45.3651V24.8763C54.7576 24.351 54.6296 23.8349 54.3875 23.38C54.1455 22.925 53.7969 22.5472 53.3773 22.2846L36.8164 11.5793Z" fill="black"/>
<path d="M16.1152 23.7063L35.4363 10.6215L35.973 35.1208H16.1152V23.7063Z" fill="#B5702C"/>
<path d="M15.5791 35.1208H35.4368V59.2248L15.5791 46.8135V35.1208Z" fill="#A46628"/>
<path d="M35.4365 10.8999L55.0262 23.4279L54.7578 35.3992L35.9735 35.1207L35.4365 10.8999Z" fill="#D7955B"/>
<path d="M35.4365 35.1208L54.7578 34.5639L54.4894 46.8135L35.4365 59.2008V35.1208Z" fill="#D38F4A"/>
<path d="M8.60156 20.5813L35.4363 3.38313V35.1208H8.60156V20.5813Z" fill="#FFA51F"/>
<path d="M8.60156 35.1208H35.4363V66.8583L8.60156 50.5167V35.1208Z" fill="#FF9D0A"/>
<path d="M35.4365 3.38313L62.2714 19.6732V35.1208H35.4365V3.38313Z" fill="#FFCE85"/>
<path d="M35.4365 35.1208H62.2714L61.8975 50.8857L35.4365 66.8583V35.1208Z" fill="#FFBE5C"/>
<path d="M16.383 23.7064L11.5527 20.9223L34.899 6.72395V11.2214L16.383 23.7064Z" fill="#FF9D0A"/>
<path d="M53.9493 46.8933L58.7822 49.5975L35.9727 64.0741V58.7848L53.9493 46.8933Z" fill="#FFB657"/>
<path d="M35.9736 11.2399V6.72388L59.2393 21.0551L54.4898 23.4279L35.9736 11.2399Z" fill="#FFBE5C"/>
<path d="M34.9001 58.7848L34.9002 64.0378L11.8223 49.893L16.6525 47.0919L34.9001 58.7848Z" fill="#F59300"/>
<path d="M54.8702 24.4452L59.6014 21.7575L59.6008 49.1316L54.4883 45.9784L54.8702 24.4452Z" fill="#FFB657"/>
<mask id="mask0_521_1564" style="mask-type:luminance" maskUnits="userSpaceOnUse" x="53" y="21" width="8" height="15">
<path d="M60.6616 21.7575H53.6846V35.1207H60.6616V21.7575Z" fill="white"/>
</mask>
<g mask="url(#mask0_521_1564)">
<path d="M54.8742 24.4561L59.6156 21.7575L59.615 35.5002V49.2429L54.4912 46.0768L54.8742 24.4561Z" fill="#FFBE5C"/>
</g>
<path d="M16.3835 45.9784L11.2852 49.0408L11.5534 22.0359L16.1153 24.82L16.3835 45.9784Z" fill="#F59300"/>
<mask id="mask1_521_1564" style="mask-type:luminance" maskUnits="userSpaceOnUse" x="10" y="21" width="7" height="15">
<path d="M16.6517 21.7575H10.748V35.1207H16.6517V21.7575Z" fill="white"/>
</mask>
<g mask="url(#mask1_521_1564)">
<path d="M16.3958 46.0768L11.2861 49.1516L11.555 22.037L16.1269 24.8324L16.3958 46.0768Z" fill="#FF9D0A"/>
</g>
<path d="M19 25.0673L35.6376 14.4181L52.2751 25.0673V45.8054L35.6376 56.7348L19 45.8054V25.0673Z" fill="#FFAD33"/>
</g>
<g clip-path="url(#clip1_521_1564)">
<path d="M27.2156 35.1468C27.2152 36.6438 27.5952 38.1055 28.3177 39.3939L27.1465 43.7959L31.5227 42.6147C32.7331 43.293 34.0893 43.6484 35.4674 43.6485H35.471C40.0205 43.6485 43.7239 39.8376 43.7259 35.1535C43.7268 32.8837 42.8688 30.7494 41.3101 29.1436C39.7517 27.538 37.6791 26.6533 35.4707 26.6522C30.9207 26.6522 27.2175 30.4629 27.2157 35.1468" fill="url(#paint0_linear_521_1564)"/>
<path d="M26.9204 35.1441C26.9199 36.6949 27.3135 38.2089 28.0618 39.5434L26.8486 44.1032L31.3818 42.8797C32.6308 43.5807 34.0371 43.9503 35.468 43.9509H35.4717C40.1844 43.9509 44.0209 40.0029 44.0229 35.1511C44.0237 32.7998 43.1349 30.5887 41.5205 28.9254C39.906 27.2623 37.7592 26.3458 35.4717 26.3448C30.7582 26.3448 26.9224 30.2922 26.9205 35.1441H26.9204ZM29.62 39.3136L29.4507 39.037C28.7392 37.8724 28.3637 36.5266 28.3642 35.1446C28.3657 31.1119 31.554 27.8309 35.4744 27.8309C37.373 27.8318 39.1572 28.5936 40.4992 29.9759C41.8412 31.3584 42.5796 33.196 42.5791 35.1506C42.5774 39.1833 39.3891 42.4646 35.4717 42.4646H35.4689C34.1934 42.4639 32.9424 42.1113 31.8514 41.445L31.5918 41.2865L28.9018 42.0125L29.62 39.3135V39.3136Z" fill="url(#paint1_linear_521_1564)"/>
<path d="M33.3348 31.4654C33.1747 31.0992 33.0063 31.0918 32.854 31.0854C32.7294 31.0798 32.5869 31.0803 32.4445 31.0803C32.302 31.0803 32.0705 31.1354 31.8748 31.3554C31.6789 31.5756 31.127 32.1076 31.127 33.1897C31.127 34.2718 31.8926 35.3176 31.9994 35.4645C32.1062 35.6111 33.4775 37.9028 35.6492 38.7844C37.4541 39.517 37.8214 39.3713 38.2131 39.3346C38.6049 39.298 39.4773 38.8027 39.6553 38.2891C39.8334 37.7756 39.8334 37.3354 39.78 37.2434C39.7266 37.1518 39.5841 37.0967 39.3705 36.9868C39.1567 36.8768 38.1063 36.3447 37.9104 36.2712C37.7146 36.1979 37.5721 36.1613 37.4296 36.3815C37.2871 36.6014 36.878 37.0967 36.7533 37.2434C36.6287 37.3904 36.504 37.4087 36.2904 37.2987C36.0766 37.1884 35.3884 36.9564 34.5721 36.2072C33.9369 35.6242 33.5081 34.9042 33.3834 34.684C33.2588 34.4641 33.3701 34.3449 33.4772 34.2353C33.5732 34.1368 33.6909 33.9785 33.7979 33.8501C33.9044 33.7216 33.94 33.63 34.0112 33.4833C34.0825 33.3365 34.0468 33.2081 33.9935 33.098C33.94 32.988 33.5248 31.9003 33.3348 31.4655" fill="white"/>
</g>
</g>
<defs>
<filter id="filter0_d_521_1564" x="1.60156" y="1.38313" width="67.6699" height="77.4751" filterUnits="userSpaceOnUse" color-interpolation-filters="sRGB">
<feFlood flood-opacity="0" result="BackgroundImageFix"/>
<feColorMatrix in="SourceAlpha" type="matrix" values="0 0 0 0 0 0 0 0 0 0 0 0 0 0 0 0 0 0 127 0" result="hardAlpha"/>
<feOffset dy="5"/>
<feGaussianBlur stdDeviation="3.5"/>
<feComposite in2="hardAlpha" operator="out"/>
<feColorMatrix type="matrix" values="0 0 0 0 0 0 0 0 0 0 0 0 0 0 0 0 0 0 0.25 0"/>
<feBlend mode="normal" in2="BackgroundImageFix" result="effect1_dropShadow_521_1564"/>
<feBlend mode="normal" in="SourceGraphic" in2="effect1_dropShadow_521_1564" result="shape"/>
</filter>
<linearGradient id="paint0_linear_521_1564" x1="35.4362" y1="43.7959" x2="35.4362" y2="26.6522" gradientUnits="userSpaceOnUse">
<stop stop-color="#1FAF38"/>
<stop offset="1" stop-color="#60D669"/>
</linearGradient>
<linearGradient id="paint1_linear_521_1564" x1="35.4358" y1="44.1032" x2="35.4358" y2="26.3448" gradientUnits="userSpaceOnUse">
<stop stop-color="#F9F9F9"/>
<stop offset="1" stop-color="white"/>
</linearGradient>
<clipPath id="clip0_521_1564">
<rect width="71" height="71" fill="white"/>
</clipPath>
<clipPath id="clip1_521_1564">
<rect width="17.1743" height="17.8173" fill="white" transform="translate(26.8486 26.3448)"/>
</clipPath>
</defs>
</svg>
