<svg width="132" height="132" viewBox="0 0 132 132" fill="none" xmlns="http://www.w3.org/2000/svg">
<g filter="url(#filter0_d_154_467)">
<path d="M96.6705 44.7349V81.3832L65.8813 100.532L35.092 81.3832V44.7349L65.8813 25.5863L96.6705 44.7349ZM68.447 20.9504C67.6669 20.4805 66.782 20.2332 65.8813 20.2332C64.9805 20.2332 64.0956 20.4805 63.3155 20.9504L32.5262 40.0989C31.7461 40.5688 31.0984 41.2445 30.648 42.0583C30.1976 42.8721 29.9605 43.7952 29.9604 44.7349V81.3832C29.9605 82.3229 30.1976 83.246 30.648 84.0598C31.0984 84.8736 31.7461 85.5493 32.5262 86.0192L63.3155 105.168C64.0956 105.638 64.9805 105.885 65.8813 105.885C66.782 105.885 67.6669 105.638 68.447 105.168L99.2363 86.0192C100.016 85.5493 100.664 84.8736 101.115 84.0598C101.565 83.246 101.802 82.3229 101.802 81.3832V44.7349C101.802 43.7952 101.565 42.8721 101.115 42.0583C100.664 41.2445 100.016 40.5688 99.2363 40.0989L68.447 20.9504Z" fill="black"/>
<path d="M29.9607 42.6419L65.8815 19.2371L66.8793 63.0589H29.9607V42.6419Z" fill="#B5702C"/>
<path d="M28.9624 63.0588H65.881V106.174L28.9624 83.9738V63.0588Z" fill="#A46628"/>
<path d="M65.8813 19.7351L102.301 42.144L101.802 63.557L66.8796 63.059L65.8813 19.7351Z" fill="#D7955B"/>
<path d="M65.8813 63.0589L101.802 62.063L101.303 83.9739L65.8813 106.131V63.0589Z" fill="#D38F4A"/>
<path d="M15.9912 37.0524L65.8812 6.28979V63.059H15.9912V37.0524Z" fill="#B5702C"/>
<path d="M15.9912 63.0591H65.8812V119.828L15.9912 90.5979V63.0591Z" fill="#A46628"/>
<path d="M65.8811 6.28979L115.771 35.428L115.771 63.059L65.8811 63.059V6.28979Z" fill="#D7955B"/>
<path d="M65.8813 63.0591H115.771L115.076 91.2579L65.8813 119.828V63.0591Z" fill="#D38F4A"/>
<path d="M30.4592 42.6419L21.479 37.6621L64.8833 12.2654V20.31L30.4592 42.6419Z" fill="#A46628"/>
<path d="M100.301 84.1169L109.286 88.9538L66.8791 114.849L66.8791 105.387L100.301 84.1169Z" fill="#C57A30"/>
<path d="M66.8792 20.3432L66.8791 12.2654L110.134 37.8998L101.303 42.1439L66.8792 20.3432Z" fill="#D38F4A"/>
<path d="M64.8837 105.387L64.8838 114.783L21.9784 89.4821L30.9585 84.4719L64.8837 105.387Z" fill="#945C24"/>
<path d="M102.012 43.9635L110.808 39.1561L110.807 88.1203L101.302 82.48L102.012 43.9635Z" fill="#C57A30"/>
<g clip-path="url(#clip0_154_467)">
<path d="M102.017 43.9832L110.832 39.1563L110.832 63.7379L110.831 88.3195L101.305 82.6563L102.017 43.9832Z" fill="#D38F4A"/>
</g>
<path d="M30.459 82.48L20.9803 87.9577L21.4791 39.6541L29.9603 44.6338L30.459 82.48Z" fill="#945C24"/>
<g clip-path="url(#clip1_154_467)">
<path d="M30.4822 82.6562L20.9826 88.1562L21.4825 39.6562L29.9824 44.6563L30.4822 82.6562Z" fill="#A46628"/>
</g>
<path d="M34.9492 44.2613L65.881 25.2129L96.8128 44.2613V81.3555L65.881 100.905L34.9492 81.3555V44.2613Z" fill="#BC742D"/>
<g clip-path="url(#clip2_154_467)">
<path d="M50.5979 62.8684C50.5972 65.5461 51.3036 68.1607 52.6469 70.4653L50.4695 78.3392L58.6055 76.2264C60.8559 77.4397 63.3772 78.0755 65.9394 78.0756H65.9461C74.4043 78.0756 81.2895 71.2589 81.2931 62.8804C81.2948 58.8203 79.6998 55.0025 76.8019 52.1303C73.9046 49.2582 70.0512 47.6757 65.9455 47.6738C57.4863 47.6738 50.6016 54.4902 50.5981 62.8684" fill="url(#paint0_linear_154_467)"/>
<path d="M50.05 62.8633C50.0491 65.6374 50.7808 68.3455 52.172 70.7326L49.9165 78.8889L58.3443 76.7003C60.6664 77.9542 63.2809 78.6154 65.9413 78.6163H65.9482C74.7098 78.6163 81.8424 71.5545 81.8461 62.8759C81.8476 58.67 80.1952 54.715 77.1939 51.7398C74.1921 48.765 70.2009 47.1255 65.9482 47.1238C57.185 47.1238 50.0536 54.1847 50.0501 62.8633H50.05ZM55.0689 70.3215L54.7542 69.8268C53.4314 67.7436 52.7332 65.3363 52.7342 62.8643C52.737 55.6509 58.6645 49.7821 65.9531 49.7821C69.4829 49.7836 72.8001 51.1464 75.2951 53.6189C77.7899 56.0917 79.1628 59.3788 79.1619 62.8749C79.1587 70.0884 73.2311 75.9579 65.9482 75.9579H65.9429C63.5715 75.9566 61.2458 75.3259 59.2175 74.134L58.7348 73.8505L53.7336 75.1491L55.0689 70.3214V70.3215Z" fill="url(#paint1_linear_154_467)"/>
<path d="M61.9746 56.2832C61.677 55.6281 61.3638 55.6149 61.0808 55.6034C60.8491 55.5935 60.5841 55.5943 60.3195 55.5943C60.0546 55.5943 59.6241 55.693 59.2603 56.0864C58.8961 56.4802 57.8699 57.4319 57.8699 59.3674C57.8699 61.3031 59.2934 63.1737 59.4918 63.4365C59.6905 63.6987 62.2399 67.7979 66.2775 69.3749C69.6331 70.6854 70.3159 70.4247 71.0442 70.359C71.7726 70.2936 73.3945 69.4076 73.7254 68.4889C74.0566 67.5704 74.0566 66.783 73.9573 66.6185C73.858 66.4545 73.5931 66.3561 73.1958 66.1594C72.7985 65.9626 70.8455 65.0109 70.4814 64.8795C70.1172 64.7484 69.8525 64.6829 69.5875 65.0768C69.3226 65.4701 68.5619 66.3561 68.3301 66.6185C68.0984 66.8814 67.8666 66.9142 67.4695 66.7174C67.072 66.52 65.7927 66.1051 64.2749 64.7649C63.094 63.7221 62.2967 62.4343 62.065 62.0404C61.8333 61.647 62.0402 61.4338 62.2394 61.2378C62.4178 61.0615 62.6367 60.7784 62.8355 60.5487C63.0336 60.319 63.0997 60.1551 63.2322 59.8927C63.3648 59.6301 63.2984 59.4003 63.1992 59.2035C63.0997 59.0067 62.3278 57.0612 61.9746 56.2833" fill="white"/>
</g>
</g>
<defs>
<filter id="filter0_d_154_467" x="8.99121" y="4.28979" width="113.78" height="127.539" filterUnits="userSpaceOnUse" color-interpolation-filters="sRGB">
<feFlood flood-opacity="0" result="BackgroundImageFix"/>
<feColorMatrix in="SourceAlpha" type="matrix" values="0 0 0 0 0 0 0 0 0 0 0 0 0 0 0 0 0 0 127 0" result="hardAlpha"/>
<feOffset dy="5"/>
<feGaussianBlur stdDeviation="3.5"/>
<feComposite in2="hardAlpha" operator="out"/>
<feColorMatrix type="matrix" values="0 0 0 0 0 0 0 0 0 0 0 0 0 0 0 0 0 0 0.25 0"/>
<feBlend mode="normal" in2="BackgroundImageFix" result="effect1_dropShadow_154_467"/>
<feBlend mode="normal" in="SourceGraphic" in2="effect1_dropShadow_154_467" result="shape"/>
</filter>
<linearGradient id="paint0_linear_154_467" x1="65.8813" y1="78.3392" x2="65.8813" y2="47.6738" gradientUnits="userSpaceOnUse">
<stop stop-color="#1FAF38"/>
<stop offset="1" stop-color="#60D669"/>
</linearGradient>
<linearGradient id="paint1_linear_154_467" x1="65.8813" y1="78.8889" x2="65.8813" y2="47.1238" gradientUnits="userSpaceOnUse">
<stop stop-color="#F9F9F9"/>
<stop offset="1" stop-color="white"/>
</linearGradient>
<clipPath id="clip0_154_467">
<rect width="12.9714" height="23.9028" fill="white" transform="translate(99.8062 39.1562)"/>
</clipPath>
<clipPath id="clip1_154_467">
<rect width="10.9758" height="23.9028" fill="white" transform="translate(19.9824 39.1562)"/>
</clipPath>
<clipPath id="clip2_154_467">
<rect width="31.9296" height="31.8704" fill="white" transform="translate(49.9165 47.1238)"/>
</clipPath>
</defs>
</svg>
