<svg width="132" height="132" viewBox="0 0 132 132" fill="none" xmlns="http://www.w3.org/2000/svg">
<g filter="url(#filter0_d_742_701)">
<path d="M96.6705 44.7349V81.3832L65.8814 100.532L35.092 81.3832V44.7349L65.8814 25.5863L96.6705 44.7349ZM68.447 20.9504C67.6669 20.4805 66.7821 20.2332 65.8814 20.2332C64.9806 20.2332 64.0956 20.4805 63.3155 20.9504L32.5262 40.0989C31.7461 40.5688 31.0985 41.2445 30.6481 42.0583C30.1977 42.8721 29.9605 43.7952 29.9604 44.7349V81.3832C29.9605 82.3229 30.1977 83.246 30.6481 84.0598C31.0985 84.8736 31.7461 85.5493 32.5262 86.0192L63.3155 105.168C64.0956 105.638 64.9806 105.885 65.8814 105.885C66.7821 105.885 67.6669 105.638 68.447 105.168L99.2363 86.0192C100.016 85.5493 100.664 84.8736 101.115 84.0598C101.565 83.246 101.802 82.3229 101.802 81.3832V44.7349C101.802 43.7952 101.565 42.8721 101.115 42.0583C100.664 41.2445 100.016 40.5688 99.2363 40.0989L68.447 20.9504Z" fill="black"/>
<path d="M29.9607 42.6419L65.8815 19.2371L66.8793 63.0589H29.9607V42.6419Z" fill="#B5702C"/>
<path d="M28.9624 63.0588H65.881V106.174L28.9624 83.9738V63.0588Z" fill="#A46628"/>
<path d="M65.8813 19.7351L102.301 42.144L101.802 63.557L66.8796 63.059L65.8813 19.7351Z" fill="#D7955B"/>
<path d="M65.8813 63.0589L101.802 62.063L101.303 83.9739L65.8813 106.131V63.0589Z" fill="#D38F4A"/>
<path d="M15.9912 37.0524L65.8812 6.28979V63.059H15.9912V37.0524Z" fill="#B5702C"/>
<path d="M15.9912 63.0591H65.8812V119.828L15.9912 90.5979V63.0591Z" fill="#A46628"/>
<path d="M65.8811 6.28979L115.771 35.428V63.059H65.8811V6.28979Z" fill="#D7955B"/>
<path d="M65.8813 63.0591H115.771L115.076 91.2579L65.8813 119.828V63.0591Z" fill="#D38F4A"/>
<path d="M30.4592 42.6419L21.479 37.6621L64.8833 12.2654V20.31L30.4592 42.6419Z" fill="#A46628"/>
<path d="M100.301 84.1169L109.286 88.9538L66.8792 114.849V105.387L100.301 84.1169Z" fill="#C57A30"/>
<path d="M66.8793 20.3432L66.8792 12.2654L110.134 37.8998L101.303 42.1439L66.8793 20.3432Z" fill="#D38F4A"/>
<path d="M64.8838 105.387L64.8839 114.783L21.9785 89.4821L30.9586 84.4719L64.8838 105.387Z" fill="#945C24"/>
<path d="M102.012 43.9635L110.808 39.1561L110.807 88.1203L101.302 82.48L102.012 43.9635Z" fill="#C57A30"/>
<mask id="mask0_742_701" style="mask-type:luminance" maskUnits="userSpaceOnUse" x="99" y="39" width="14" height="25">
<path d="M112.778 39.1562H99.8062V63.059H112.778V39.1562Z" fill="white"/>
</mask>
<g mask="url(#mask0_742_701)">
<path d="M102.017 43.9833L110.832 39.1564V63.738L110.831 88.3196L101.305 82.6564L102.017 43.9833Z" fill="#D38F4A"/>
</g>
<path d="M30.4589 82.48L20.9802 87.9577L21.479 39.6541L29.9602 44.6338L30.4589 82.48Z" fill="#945C24"/>
<mask id="mask1_742_701" style="mask-type:luminance" maskUnits="userSpaceOnUse" x="19" y="39" width="12" height="25">
<path d="M30.9582 39.1562H19.9824V63.059H30.9582V39.1562Z" fill="white"/>
</mask>
<g mask="url(#mask1_742_701)">
<path d="M30.4823 82.6562L20.9827 88.1562L21.4826 39.6562L29.9825 44.6563L30.4823 82.6562Z" fill="#A46628"/>
</g>
<path d="M34.9492 44.2613L65.881 25.2129L96.8128 44.2613V81.3555L65.881 100.905L34.9492 81.3555V44.2613Z" fill="#BC742D"/>
</g>
<path d="M65.9999 80.2676C62.2313 79.3187 59.1204 77.1562 56.6672 73.7801C54.213 70.4051 52.9858 66.6571 52.9858 62.5359V52.6127L65.9999 47.7324L79.014 52.6127V62.5359C79.014 66.6571 77.7874 70.4051 75.3343 73.7801C72.88 77.1562 69.7686 79.3187 65.9999 80.2676ZM65.9999 76.8514C68.6299 76.0381 70.826 74.4319 72.5883 72.033C74.3506 69.633 75.3809 66.9553 75.6792 64H65.9999V51.1893L56.2394 54.8495V63.268C56.2394 63.4578 56.2665 63.7018 56.3207 64H65.9999V76.8514Z" fill="black"/>
<defs>
<filter id="filter0_d_742_701" x="8.99121" y="4.28979" width="113.78" height="127.538" filterUnits="userSpaceOnUse" color-interpolation-filters="sRGB">
<feFlood flood-opacity="0" result="BackgroundImageFix"/>
<feColorMatrix in="SourceAlpha" type="matrix" values="0 0 0 0 0 0 0 0 0 0 0 0 0 0 0 0 0 0 127 0" result="hardAlpha"/>
<feOffset dy="5"/>
<feGaussianBlur stdDeviation="3.5"/>
<feComposite in2="hardAlpha" operator="out"/>
<feColorMatrix type="matrix" values="0 0 0 0 0 0 0 0 0 0 0 0 0 0 0 0 0 0 0.25 0"/>
<feBlend mode="normal" in2="BackgroundImageFix" result="effect1_dropShadow_742_701"/>
<feBlend mode="normal" in="SourceGraphic" in2="effect1_dropShadow_742_701" result="shape"/>
</filter>
</defs>
</svg>
