<svg width="132" height="132" viewBox="0 0 132 132" fill="none" xmlns="http://www.w3.org/2000/svg">
<g filter="url(#filter0_d_742_666)">
<path d="M96.6705 44.7349V81.3832L65.8814 100.532L35.092 81.3832V44.7349L65.8814 25.5863L96.6705 44.7349ZM68.447 20.9504C67.6669 20.4805 66.7821 20.2332 65.8814 20.2332C64.9806 20.2332 64.0956 20.4805 63.3155 20.9504L32.5262 40.0989C31.7461 40.5688 31.0985 41.2445 30.6481 42.0583C30.1977 42.8721 29.9605 43.7952 29.9604 44.7349V81.3832C29.9605 82.3229 30.1977 83.246 30.6481 84.0598C31.0985 84.8736 31.7461 85.5493 32.5262 86.0192L63.3155 105.168C64.0956 105.638 64.9806 105.885 65.8814 105.885C66.7821 105.885 67.6669 105.638 68.447 105.168L99.2363 86.0192C100.016 85.5493 100.664 84.8736 101.115 84.0598C101.565 83.246 101.802 82.3229 101.802 81.3832V44.7349C101.802 43.7952 101.565 42.8721 101.115 42.0583C100.664 41.2445 100.016 40.5688 99.2363 40.0989L68.447 20.9504Z" fill="black"/>
<path d="M29.9607 42.6419L65.8815 19.2371L66.8793 63.0589H29.9607V42.6419Z" fill="#B5702C"/>
<path d="M28.9624 63.0588H65.881V106.174L28.9624 83.9738V63.0588Z" fill="#A46628"/>
<path d="M65.8813 19.7351L102.301 42.144L101.802 63.557L66.8796 63.059L65.8813 19.7351Z" fill="#D7955B"/>
<path d="M65.8813 63.0589L101.802 62.063L101.303 83.9739L65.8813 106.131V63.0589Z" fill="#D38F4A"/>
<path d="M15.9912 37.0524L65.8812 6.28979V63.059H15.9912V37.0524Z" fill="#B5702C"/>
<path d="M15.9912 63.0591H65.8812V119.828L15.9912 90.5979V63.0591Z" fill="#A46628"/>
<path d="M65.8811 6.28979L115.771 35.428V63.059H65.8811V6.28979Z" fill="#D7955B"/>
<path d="M65.8813 63.0591H115.771L115.076 91.2579L65.8813 119.828V63.0591Z" fill="#D38F4A"/>
<path d="M30.4592 42.6419L21.479 37.6621L64.8833 12.2654V20.31L30.4592 42.6419Z" fill="#A46628"/>
<path d="M100.301 84.1169L109.286 88.9538L66.8792 114.849V105.387L100.301 84.1169Z" fill="#C57A30"/>
<path d="M66.8793 20.3432L66.8792 12.2654L110.134 37.8998L101.303 42.1439L66.8793 20.3432Z" fill="#D38F4A"/>
<path d="M64.8838 105.387L64.8839 114.783L21.9785 89.4821L30.9586 84.4719L64.8838 105.387Z" fill="#945C24"/>
<path d="M102.012 43.9635L110.808 39.1561L110.807 88.1203L101.302 82.48L102.012 43.9635Z" fill="#C57A30"/>
<mask id="mask0_742_666" style="mask-type:luminance" maskUnits="userSpaceOnUse" x="99" y="39" width="14" height="25">
<path d="M112.778 39.1562H99.8062V63.059H112.778V39.1562Z" fill="white"/>
</mask>
<g mask="url(#mask0_742_666)">
<path d="M102.017 43.9833L110.832 39.1564V63.738L110.831 88.3196L101.305 82.6564L102.017 43.9833Z" fill="#D38F4A"/>
</g>
<path d="M30.4589 82.48L20.9802 87.9577L21.479 39.6541L29.9602 44.6338L30.4589 82.48Z" fill="#945C24"/>
<mask id="mask1_742_666" style="mask-type:luminance" maskUnits="userSpaceOnUse" x="19" y="39" width="12" height="25">
<path d="M30.9582 39.1562H19.9824V63.059H30.9582V39.1562Z" fill="white"/>
</mask>
<g mask="url(#mask1_742_666)">
<path d="M30.4823 82.6562L20.9827 88.1562L21.4826 39.6562L29.9825 44.6563L30.4823 82.6562Z" fill="#A46628"/>
</g>
<path d="M34.9492 44.2613L65.881 25.2129L96.8128 44.2613V81.3555L65.881 100.905L34.9492 81.3555V44.2613Z" fill="#BC742D"/>
</g>
<path d="M73.0925 67.2536C73.2226 66.1799 73.3202 65.1062 73.3202 64C73.3202 62.8938 73.2226 61.8202 73.0925 60.7465H78.5909C78.8512 61.7876 79.0139 62.8776 79.0139 64C79.0139 65.1225 78.8512 66.2124 78.5909 67.2536M70.2131 76.2983C71.1892 74.4926 71.9375 72.5405 72.458 70.5071H77.257C75.6809 73.221 73.1805 75.2767 70.2131 76.2983M69.8064 67.2536H62.1932C62.0305 66.1799 61.9329 65.1062 61.9329 64C61.9329 62.8938 62.0305 61.8039 62.1932 60.7465H69.8064C69.9528 61.8039 70.0667 62.8938 70.0667 64C70.0667 65.1062 69.9528 66.1799 69.8064 67.2536ZM65.9998 76.949C64.6496 74.9969 63.5596 72.8333 62.8927 70.5071H69.1069C68.4399 72.8333 67.35 74.9969 65.9998 76.949ZM59.4927 57.493H54.7426C56.3024 54.7718 58.801 52.7127 61.7702 51.7017C60.7941 53.5074 60.0621 55.4595 59.4927 57.493ZM54.7426 70.5071H59.4927C60.0621 72.5405 60.7941 74.4926 61.7702 76.2983C58.8073 75.2762 56.3122 73.2201 54.7426 70.5071M53.4087 67.2536C53.1484 66.2124 52.9857 65.1225 52.9857 64C52.9857 62.8776 53.1484 61.7876 53.4087 60.7465H58.9071C58.777 61.8202 58.6794 62.8938 58.6794 64C58.6794 65.1062 58.777 66.1799 58.9071 67.2536M65.9998 51.0347C67.35 52.9869 68.4399 55.1667 69.1069 57.493H62.8927C63.5596 55.1667 64.6496 52.9869 65.9998 51.0347M77.257 57.493H72.458C71.9489 55.4782 71.195 53.5333 70.2131 51.7017C73.2063 52.7266 75.6953 54.7926 77.257 57.493ZM65.9998 47.7324C57.0038 47.7324 49.7322 55.0528 49.7322 64C49.7322 68.3145 51.4461 72.4522 54.4968 75.503C56.0074 77.0136 57.8008 78.2118 59.7744 79.0293C61.7481 79.8469 63.8635 80.2676 65.9998 80.2676C70.3142 80.2676 74.452 78.5537 77.5027 75.503C80.5535 72.4522 82.2674 68.3145 82.2674 64C82.2674 61.8637 81.8466 59.7484 81.0291 57.7747C80.2116 55.801 79.0133 54.0077 77.5027 52.4971C75.9921 50.9865 74.1988 49.7882 72.2251 48.9707C70.2515 48.1532 68.1361 47.7324 65.9998 47.7324V47.7324Z" fill="black"/>
<defs>
<filter id="filter0_d_742_666" x="8.99121" y="4.28979" width="113.78" height="127.538" filterUnits="userSpaceOnUse" color-interpolation-filters="sRGB">
<feFlood flood-opacity="0" result="BackgroundImageFix"/>
<feColorMatrix in="SourceAlpha" type="matrix" values="0 0 0 0 0 0 0 0 0 0 0 0 0 0 0 0 0 0 127 0" result="hardAlpha"/>
<feOffset dy="5"/>
<feGaussianBlur stdDeviation="3.5"/>
<feComposite in2="hardAlpha" operator="out"/>
<feColorMatrix type="matrix" values="0 0 0 0 0 0 0 0 0 0 0 0 0 0 0 0 0 0 0.25 0"/>
<feBlend mode="normal" in2="BackgroundImageFix" result="effect1_dropShadow_742_666"/>
<feBlend mode="normal" in="SourceGraphic" in2="effect1_dropShadow_742_666" result="shape"/>
</filter>
</defs>
</svg>
