<svg width="132" height="132" viewBox="0 0 132 132" fill="none" xmlns="http://www.w3.org/2000/svg">
<g clip-path="url(#clip0_742_495)">
<g filter="url(#filter0_d_742_495)">
<path d="M96.6793 47.4456V84.0946L65.89 103.244L35.1008 84.0946V47.4456L65.89 28.2967L96.6793 47.4456ZM68.4558 23.6608C67.6757 23.1908 66.7908 22.9435 65.89 22.9435C64.9893 22.9435 64.1044 23.1908 63.3243 23.6608L32.535 42.8096C31.7549 43.2795 31.1072 43.9553 30.6568 44.7691C30.2064 45.5828 29.9693 46.5059 29.9692 47.4456V84.0946C29.9693 85.0343 30.2064 85.9574 30.6568 86.7711C31.1072 87.5849 31.7549 88.2607 32.535 88.7305L63.3243 107.88C64.1044 108.35 64.9893 108.597 65.89 108.597C66.7908 108.597 67.6757 108.35 68.4558 107.88L99.2451 88.7305C100.025 88.2607 100.673 87.5849 101.123 86.7711C101.573 85.9574 101.811 85.0343 101.811 84.0946V47.4456C101.811 46.5059 101.573 45.5828 101.123 44.7691C100.673 43.9553 100.025 43.2795 99.2451 42.8096L68.4558 23.6608Z" fill="black"/>
<path d="M29.9692 45.3528L65.89 21.9475L66.8878 65.7701H29.9692V45.3528Z" fill="#B5702C"/>
<path d="M28.9722 65.7701H65.8908V108.886L28.9722 86.6854V65.7701Z" fill="#A46628"/>
<path d="M65.8906 22.4456L102.311 44.8548L101.812 66.2681L66.8889 65.7701L65.8906 22.4456Z" fill="#D7955B"/>
<path d="M65.8906 65.7702L101.812 64.7742L101.313 86.6854L65.8906 108.843V65.7702Z" fill="#D38F4A"/>
<path d="M16 39.763L65.89 9V65.7701H16V39.763Z" fill="#FFA51F"/>
<path d="M16 65.7701H65.89V122.54L16 93.3094V65.7701Z" fill="#FF9D0A"/>
<path d="M65.8904 9L115.78 38.1386V65.7701H65.8904V9Z" fill="#FFCE85"/>
<path d="M65.8901 65.7701H115.78L115.085 93.9694L65.8901 122.54V65.7701Z" fill="#FFBE5C"/>
<path d="M30.467 45.3528L21.4868 40.3729L64.8911 14.9758V23.0206L30.467 45.3528Z" fill="#FF9D0A"/>
<path d="M100.309 86.8281L109.294 91.6652L66.8872 117.56V108.099L100.309 86.8281Z" fill="#FFB657"/>
<path d="M66.8892 23.0536V14.9757L110.144 40.6105L101.314 44.8547L66.8892 23.0536Z" fill="#FFBE5C"/>
<path d="M64.8931 108.099L64.8932 117.495L21.9878 92.1936L30.9679 87.1833L64.8931 108.099Z" fill="#F59300"/>
<path d="M102.021 46.6744L110.817 41.8669L110.816 90.8319L101.311 85.1915L102.021 46.6744Z" fill="#FFB657"/>
<mask id="mask0_742_495" style="mask-type:luminance" maskUnits="userSpaceOnUse" x="99" y="41" width="14" height="25">
<path d="M112.788 41.8669H99.8164V65.7701H112.788V41.8669Z" fill="white"/>
</mask>
<g mask="url(#mask0_742_495)">
<path d="M102.028 46.6939L110.843 41.8669L110.842 66.4489V91.0309L101.316 85.3676L102.028 46.6939Z" fill="#FFBE5C"/>
</g>
<path d="M30.468 85.1914L20.9893 90.6693L21.4881 42.3649L29.9693 47.3447L30.468 85.1914Z" fill="#F59300"/>
<mask id="mask1_742_495" style="mask-type:luminance" maskUnits="userSpaceOnUse" x="19" y="41" width="12" height="25">
<path d="M30.9665 41.8669H19.9907V65.7701H30.9665V41.8669Z" fill="white"/>
</mask>
<g mask="url(#mask1_742_495)">
<path d="M30.4903 85.3675L20.9907 90.8676L21.4906 42.3668L29.9905 47.3669L30.4903 85.3675Z" fill="#FF9D0A"/>
</g>
<path d="M35.3325 47.7873L66.2643 28.7386L97.1961 47.7873V84.8821L66.2643 104.432L35.3325 84.8821V47.7873Z" fill="#FFAD33"/>
</g>
<path d="M65.9999 82.2676C62.2313 81.3187 59.1204 79.1562 56.6672 75.7801C54.213 72.4051 52.9858 68.6571 52.9858 64.5359V54.6127L65.9999 49.7324L79.014 54.6127V64.5359C79.014 68.6571 77.7874 72.4051 75.3343 75.7801C72.88 79.1562 69.7686 81.3187 65.9999 82.2676ZM65.9999 78.8514C68.6299 78.0381 70.826 76.4319 72.5883 74.033C74.3506 71.633 75.3809 68.9553 75.6792 66H65.9999V53.1893L56.2394 56.8495V65.268C56.2394 65.4578 56.2665 65.7018 56.3207 66H65.9999V78.8514Z" fill="black"/>
</g>
<defs>
<filter id="filter0_d_742_495" x="9" y="7" width="113.781" height="127.54" filterUnits="userSpaceOnUse" color-interpolation-filters="sRGB">
<feFlood flood-opacity="0" result="BackgroundImageFix"/>
<feColorMatrix in="SourceAlpha" type="matrix" values="0 0 0 0 0 0 0 0 0 0 0 0 0 0 0 0 0 0 127 0" result="hardAlpha"/>
<feOffset dy="5"/>
<feGaussianBlur stdDeviation="3.5"/>
<feComposite in2="hardAlpha" operator="out"/>
<feColorMatrix type="matrix" values="0 0 0 0 0 0 0 0 0 0 0 0 0 0 0 0 0 0 0.25 0"/>
<feBlend mode="normal" in2="BackgroundImageFix" result="effect1_dropShadow_742_495"/>
<feBlend mode="normal" in="SourceGraphic" in2="effect1_dropShadow_742_495" result="shape"/>
</filter>
<clipPath id="clip0_742_495">
<rect width="132" height="132" fill="white"/>
</clipPath>
</defs>
</svg>
