<svg width="132" height="132" viewBox="0 0 132 132" fill="none" xmlns="http://www.w3.org/2000/svg">
<g clip-path="url(#clip0_742_465)">
<g filter="url(#filter0_d_742_465)">
<path d="M96.6793 47.4456V84.0946L65.89 103.244L35.1008 84.0946V47.4456L65.89 28.2967L96.6793 47.4456ZM68.4558 23.6608C67.6757 23.1908 66.7908 22.9435 65.89 22.9435C64.9893 22.9435 64.1044 23.1908 63.3243 23.6608L32.535 42.8096C31.7549 43.2795 31.1072 43.9553 30.6568 44.7691C30.2064 45.5828 29.9693 46.5059 29.9692 47.4456V84.0946C29.9693 85.0343 30.2064 85.9574 30.6568 86.7711C31.1072 87.5849 31.7549 88.2607 32.535 88.7305L63.3243 107.88C64.1044 108.35 64.9893 108.597 65.89 108.597C66.7908 108.597 67.6757 108.35 68.4558 107.88L99.2451 88.7305C100.025 88.2607 100.673 87.5849 101.123 86.7711C101.573 85.9574 101.811 85.0343 101.811 84.0946V47.4456C101.811 46.5059 101.573 45.5828 101.123 44.7691C100.673 43.9553 100.025 43.2795 99.2451 42.8096L68.4558 23.6608Z" fill="black"/>
<path d="M29.9692 45.3528L65.89 21.9475L66.8878 65.7701H29.9692V45.3528Z" fill="#B5702C"/>
<path d="M28.9722 65.7701H65.8908V108.886L28.9722 86.6854V65.7701Z" fill="#A46628"/>
<path d="M65.8906 22.4456L102.311 44.8548L101.812 66.2681L66.8889 65.7701L65.8906 22.4456Z" fill="#D7955B"/>
<path d="M65.8906 65.7702L101.812 64.7742L101.313 86.6854L65.8906 108.843V65.7702Z" fill="#D38F4A"/>
<path d="M16 39.763L65.89 9V65.7701H16V39.763Z" fill="#FFA51F"/>
<path d="M16 65.7701H65.89V122.54L16 93.3094V65.7701Z" fill="#FF9D0A"/>
<path d="M65.8904 9L115.78 38.1386V65.7701H65.8904V9Z" fill="#FFCE85"/>
<path d="M65.8901 65.7701H115.78L115.085 93.9694L65.8901 122.54V65.7701Z" fill="#FFBE5C"/>
<path d="M30.467 45.3528L21.4868 40.3729L64.8911 14.9758V23.0206L30.467 45.3528Z" fill="#FF9D0A"/>
<path d="M100.309 86.8281L109.294 91.6652L66.8872 117.56V108.099L100.309 86.8281Z" fill="#FFB657"/>
<path d="M66.8892 23.0536V14.9757L110.144 40.6105L101.314 44.8547L66.8892 23.0536Z" fill="#FFBE5C"/>
<path d="M64.8931 108.099L64.8932 117.495L21.9878 92.1936L30.9679 87.1833L64.8931 108.099Z" fill="#F59300"/>
<path d="M102.021 46.6744L110.817 41.8669L110.816 90.8319L101.311 85.1915L102.021 46.6744Z" fill="#FFB657"/>
<mask id="mask0_742_465" style="mask-type:luminance" maskUnits="userSpaceOnUse" x="99" y="41" width="14" height="25">
<path d="M112.788 41.8669H99.8164V65.7701H112.788V41.8669Z" fill="white"/>
</mask>
<g mask="url(#mask0_742_465)">
<path d="M102.028 46.6939L110.843 41.8669L110.842 66.4489V91.0309L101.316 85.3676L102.028 46.6939Z" fill="#FFBE5C"/>
</g>
<path d="M30.468 85.1914L20.9893 90.6693L21.4881 42.3649L29.9693 47.3447L30.468 85.1914Z" fill="#F59300"/>
<mask id="mask1_742_465" style="mask-type:luminance" maskUnits="userSpaceOnUse" x="19" y="41" width="12" height="25">
<path d="M30.9665 41.8669H19.9907V65.7701H30.9665V41.8669Z" fill="white"/>
</mask>
<g mask="url(#mask1_742_465)">
<path d="M30.4903 85.3675L20.9907 90.8676L21.4906 42.3668L29.9905 47.3669L30.4903 85.3675Z" fill="#FF9D0A"/>
</g>
<path d="M35.3325 47.7873L66.2643 28.7386L97.1961 47.7873V84.8821L66.2643 104.432L35.3325 84.8821V47.7873Z" fill="#FFAD33"/>
</g>
<path d="M73.0925 69.2536C73.2226 68.1799 73.3202 67.1062 73.3202 66C73.3202 64.8938 73.2226 63.8202 73.0925 62.7465H78.5909C78.8512 63.7876 79.0139 64.8776 79.0139 66C79.0139 67.1225 78.8512 68.2124 78.5909 69.2536M70.2131 78.2983C71.1892 76.4926 71.9375 74.5405 72.458 72.5071H77.257C75.6809 75.221 73.1805 77.2767 70.2131 78.2983M69.8064 69.2536H62.1932C62.0305 68.1799 61.9329 67.1062 61.9329 66C61.9329 64.8938 62.0305 63.8039 62.1932 62.7465H69.8064C69.9528 63.8039 70.0667 64.8938 70.0667 66C70.0667 67.1062 69.9528 68.1799 69.8064 69.2536ZM65.9998 78.949C64.6496 76.9969 63.5596 74.8333 62.8927 72.5071H69.1069C68.4399 74.8333 67.35 76.9969 65.9998 78.949ZM59.4927 59.493H54.7426C56.3024 56.7718 58.801 54.7127 61.7702 53.7017C60.7941 55.5074 60.0621 57.4595 59.4927 59.493ZM54.7426 72.5071H59.4927C60.0621 74.5405 60.7941 76.4926 61.7702 78.2983C58.8073 77.2762 56.3122 75.2201 54.7426 72.5071M53.4087 69.2536C53.1484 68.2124 52.9857 67.1225 52.9857 66C52.9857 64.8776 53.1484 63.7876 53.4087 62.7465H58.9071C58.777 63.8202 58.6794 64.8938 58.6794 66C58.6794 67.1062 58.777 68.1799 58.9071 69.2536M65.9998 53.0347C67.35 54.9869 68.4399 57.1667 69.1069 59.493H62.8927C63.5596 57.1667 64.6496 54.9869 65.9998 53.0347M77.257 59.493H72.458C71.9489 57.4782 71.195 55.5333 70.2131 53.7017C73.2063 54.7266 75.6953 56.7926 77.257 59.493ZM65.9998 49.7324C57.0038 49.7324 49.7322 57.0528 49.7322 66C49.7322 70.3145 51.4461 74.4522 54.4968 77.503C56.0074 79.0136 57.8008 80.2118 59.7744 81.0293C61.7481 81.8469 63.8635 82.2676 65.9998 82.2676C70.3142 82.2676 74.452 80.5537 77.5027 77.503C80.5535 74.4522 82.2674 70.3145 82.2674 66C82.2674 63.8637 81.8466 61.7484 81.0291 59.7747C80.2116 57.801 79.0133 56.0077 77.5027 54.4971C75.9921 52.9865 74.1988 51.7882 72.2251 50.9707C70.2515 50.1532 68.1361 49.7324 65.9998 49.7324V49.7324Z" fill="black"/>
</g>
<defs>
<filter id="filter0_d_742_465" x="9" y="7" width="113.781" height="127.54" filterUnits="userSpaceOnUse" color-interpolation-filters="sRGB">
<feFlood flood-opacity="0" result="BackgroundImageFix"/>
<feColorMatrix in="SourceAlpha" type="matrix" values="0 0 0 0 0 0 0 0 0 0 0 0 0 0 0 0 0 0 127 0" result="hardAlpha"/>
<feOffset dy="5"/>
<feGaussianBlur stdDeviation="3.5"/>
<feComposite in2="hardAlpha" operator="out"/>
<feColorMatrix type="matrix" values="0 0 0 0 0 0 0 0 0 0 0 0 0 0 0 0 0 0 0.25 0"/>
<feBlend mode="normal" in2="BackgroundImageFix" result="effect1_dropShadow_742_465"/>
<feBlend mode="normal" in="SourceGraphic" in2="effect1_dropShadow_742_465" result="shape"/>
</filter>
<clipPath id="clip0_742_465">
<rect width="132" height="132" fill="white"/>
</clipPath>
</defs>
</svg>
