<svg width="132" height="132" viewBox="0 0 132 132" fill="none" xmlns="http://www.w3.org/2000/svg">
<g filter="url(#filter0_d_742_37)">
<path d="M96.6703 44.7348V81.3832L65.881 100.532L35.0918 81.3832V44.7348L65.881 25.5862L96.6703 44.7348ZM68.4468 20.9503C67.6667 20.4804 66.7818 20.2331 65.881 20.2331C64.9803 20.2331 64.0954 20.4804 63.3153 20.9503L32.526 40.0989C31.7459 40.5687 31.0982 41.2445 30.6478 42.0583C30.1974 42.872 29.9603 43.7951 29.9602 44.7348V81.3832C29.9603 82.3229 30.1974 83.246 30.6478 84.0597C31.0982 84.8735 31.7459 85.5493 32.526 86.0191L63.3153 105.168C64.0954 105.638 64.9803 105.885 65.881 105.885C66.7818 105.885 67.6667 105.638 68.4468 105.168L99.2361 86.0191C100.016 85.5493 100.664 84.8735 101.114 84.0597C101.564 83.246 101.802 82.3229 101.802 81.3832V44.7348C101.802 43.7951 101.564 42.872 101.114 42.0583C100.664 41.2445 100.016 40.5687 99.2361 40.0989L68.4468 20.9503Z" fill="black"/>
<path d="M29.9602 42.642L65.881 19.2371L66.8788 63.059H29.9602V42.642Z" fill="#B5702C"/>
<path d="M28.9636 63.059H65.8822V106.174L28.9636 83.9739V63.059Z" fill="#A46628"/>
<path d="M65.8818 19.735L102.302 42.1439L101.803 63.5569L66.8801 63.0589L65.8818 19.735Z" fill="#D7955B"/>
<path d="M65.8818 63.059L101.803 62.063L101.304 83.9739L65.8818 106.131V63.059Z" fill="#D38F4A"/>
<path d="M15.9912 37.0523L65.8812 6.28973V63.059H15.9912V37.0523Z" fill="#67CEF4"/>
<path d="M15.9912 63.059H65.8812V119.828L15.9912 90.5978V63.059Z" fill="#54C8F2"/>
<path d="M65.8816 6.28973L115.772 35.4279V63.059H65.8816V6.28973Z" fill="#B3E7F9"/>
<path d="M65.8816 63.059H115.772L115.077 91.2578L65.8816 119.828V63.059Z" fill="#A0E0F8"/>
<path d="M30.458 42.642L21.4778 37.6622L64.8821 12.2655V20.3101L30.458 42.642Z" fill="#54C8F2"/>
<path d="M100.3 84.1167L109.285 88.9537L66.8787 114.848V105.387L100.3 84.1167Z" fill="#8DDAF6"/>
<path d="M66.8801 20.3432V12.2654L110.135 37.8998L101.305 42.1439L66.8801 20.3432Z" fill="#A0E0F8"/>
<path d="M64.8843 105.387L64.8844 114.783L21.979 89.4821L30.9591 84.4719L64.8843 105.387Z" fill="#41C2F1"/>
<path d="M102.012 43.9636L110.808 39.1562L110.807 88.1204L101.302 82.4801L102.012 43.9636Z" fill="#8DDAF6"/>
<mask id="mask0_742_37" style="mask-type:luminance" maskUnits="userSpaceOnUse" x="99" y="39" width="14" height="25">
<path d="M112.779 39.1562H99.8076V63.059H112.779V39.1562Z" fill="white"/>
</mask>
<g mask="url(#mask0_742_37)">
<path d="M102.019 43.9831L110.834 39.1562L110.833 63.7378V88.3194L101.307 82.6562L102.019 43.9831Z" fill="#A0E0F8"/>
</g>
<path d="M30.4589 82.48L20.9802 87.9578L21.479 39.6541L29.9602 44.6339L30.4589 82.48Z" fill="#41C2F1"/>
<mask id="mask1_742_37" style="mask-type:luminance" maskUnits="userSpaceOnUse" x="19" y="39" width="12" height="25">
<path d="M30.9577 39.1562H19.9819V63.059H30.9577V39.1562Z" fill="white"/>
</mask>
<g mask="url(#mask1_742_37)">
<path d="M30.4818 82.6562L20.9822 88.1562L21.4821 39.6561L29.982 44.6562L30.4818 82.6562Z" fill="#54C8F2"/>
</g>
<path d="M34.9492 44.2612L65.881 25.2128L96.8128 44.2612V81.3554L65.881 100.905L34.9492 81.3554V44.2612Z" fill="#70D1F4"/>
</g>
<path d="M73.0925 69.2536C73.2226 68.1799 73.3202 67.1062 73.3202 66C73.3202 64.8938 73.2226 63.8202 73.0925 62.7465H78.5909C78.8512 63.7876 79.0139 64.8776 79.0139 66C79.0139 67.1225 78.8512 68.2124 78.5909 69.2536M70.2131 78.2983C71.1892 76.4926 71.9375 74.5405 72.458 72.5071H77.257C75.6809 75.221 73.1805 77.2767 70.2131 78.2983M69.8064 69.2536H62.1932C62.0305 68.1799 61.9329 67.1062 61.9329 66C61.9329 64.8938 62.0305 63.8039 62.1932 62.7465H69.8064C69.9528 63.8039 70.0667 64.8938 70.0667 66C70.0667 67.1062 69.9528 68.1799 69.8064 69.2536ZM65.9998 78.949C64.6496 76.9969 63.5596 74.8333 62.8927 72.5071H69.1069C68.4399 74.8333 67.35 76.9969 65.9998 78.949ZM59.4927 59.493H54.7426C56.3024 56.7718 58.801 54.7127 61.7702 53.7017C60.7941 55.5074 60.0621 57.4595 59.4927 59.493ZM54.7426 72.5071H59.4927C60.0621 74.5405 60.7941 76.4926 61.7702 78.2983C58.8073 77.2762 56.3122 75.2201 54.7426 72.5071M53.4087 69.2536C53.1484 68.2124 52.9857 67.1225 52.9857 66C52.9857 64.8776 53.1484 63.7876 53.4087 62.7465H58.9071C58.777 63.8202 58.6794 64.8938 58.6794 66C58.6794 67.1062 58.777 68.1799 58.9071 69.2536M65.9998 53.0347C67.35 54.9869 68.4399 57.1667 69.1069 59.493H62.8927C63.5596 57.1667 64.6496 54.9869 65.9998 53.0347M77.257 59.493H72.458C71.9489 57.4782 71.195 55.5333 70.2131 53.7017C73.2063 54.7266 75.6953 56.7926 77.257 59.493ZM65.9998 49.7324C57.0038 49.7324 49.7322 57.0528 49.7322 66C49.7322 70.3145 51.4461 74.4522 54.4968 77.503C56.0074 79.0136 57.8008 80.2118 59.7744 81.0293C61.7481 81.8469 63.8635 82.2676 65.9998 82.2676C70.3142 82.2676 74.452 80.5537 77.5027 77.503C80.5535 74.4522 82.2674 70.3145 82.2674 66C82.2674 63.8637 81.8466 61.7484 81.0291 59.7747C80.2116 57.801 79.0133 56.0077 77.5027 54.4971C75.9921 52.9865 74.1988 51.7882 72.2251 50.9707C70.2515 50.1532 68.1361 49.7324 65.9998 49.7324V49.7324Z" fill="black"/>
<defs>
<filter id="filter0_d_742_37" x="8.99121" y="4.28973" width="113.781" height="127.538" filterUnits="userSpaceOnUse" color-interpolation-filters="sRGB">
<feFlood flood-opacity="0" result="BackgroundImageFix"/>
<feColorMatrix in="SourceAlpha" type="matrix" values="0 0 0 0 0 0 0 0 0 0 0 0 0 0 0 0 0 0 127 0" result="hardAlpha"/>
<feOffset dy="5"/>
<feGaussianBlur stdDeviation="3.5"/>
<feComposite in2="hardAlpha" operator="out"/>
<feColorMatrix type="matrix" values="0 0 0 0 0 0 0 0 0 0 0 0 0 0 0 0 0 0 0.25 0"/>
<feBlend mode="normal" in2="BackgroundImageFix" result="effect1_dropShadow_742_37"/>
<feBlend mode="normal" in="SourceGraphic" in2="effect1_dropShadow_742_37" result="shape"/>
</filter>
</defs>
</svg>
