<svg width="132" height="132" viewBox="0 0 132 132" fill="none" xmlns="http://www.w3.org/2000/svg">
<g filter="url(#filter0_d_742_67)">
<path d="M96.6703 44.7348V81.3832L65.881 100.532L35.0918 81.3832V44.7348L65.881 25.5862L96.6703 44.7348ZM68.4468 20.9503C67.6667 20.4804 66.7818 20.2331 65.881 20.2331C64.9803 20.2331 64.0954 20.4804 63.3153 20.9503L32.526 40.0989C31.7459 40.5687 31.0982 41.2445 30.6478 42.0583C30.1974 42.872 29.9603 43.7951 29.9602 44.7348V81.3832C29.9603 82.3229 30.1974 83.246 30.6478 84.0597C31.0982 84.8735 31.7459 85.5493 32.526 86.0191L63.3153 105.168C64.0954 105.638 64.9803 105.885 65.881 105.885C66.7818 105.885 67.6667 105.638 68.4468 105.168L99.2361 86.0191C100.016 85.5493 100.664 84.8735 101.114 84.0597C101.564 83.246 101.802 82.3229 101.802 81.3832V44.7348C101.802 43.7951 101.564 42.872 101.114 42.0583C100.664 41.2445 100.016 40.5687 99.2361 40.0989L68.4468 20.9503Z" fill="black"/>
<path d="M29.9602 42.642L65.881 19.2371L66.8788 63.059H29.9602V42.642Z" fill="#B5702C"/>
<path d="M28.9636 63.059H65.8822V106.174L28.9636 83.9739V63.059Z" fill="#A46628"/>
<path d="M65.8818 19.735L102.302 42.1439L101.803 63.5569L66.8801 63.0589L65.8818 19.735Z" fill="#D7955B"/>
<path d="M65.8818 63.059L101.803 62.063L101.304 83.9739L65.8818 106.131V63.059Z" fill="#D38F4A"/>
<path d="M15.9912 37.0523L65.8812 6.28973V63.059H15.9912V37.0523Z" fill="#67CEF4"/>
<path d="M15.9912 63.059H65.8812V119.828L15.9912 90.5978V63.059Z" fill="#54C8F2"/>
<path d="M65.8816 6.28973L115.772 35.4279V63.059H65.8816V6.28973Z" fill="#B3E7F9"/>
<path d="M65.8816 63.059H115.772L115.077 91.2578L65.8816 119.828V63.059Z" fill="#A0E0F8"/>
<path d="M30.458 42.642L21.4778 37.6622L64.8821 12.2655V20.3101L30.458 42.642Z" fill="#54C8F2"/>
<path d="M100.3 84.1167L109.285 88.9537L66.8787 114.848V105.387L100.3 84.1167Z" fill="#8DDAF6"/>
<path d="M66.8801 20.3432V12.2654L110.135 37.8998L101.305 42.1439L66.8801 20.3432Z" fill="#A0E0F8"/>
<path d="M64.8843 105.387L64.8844 114.783L21.979 89.4821L30.9591 84.4719L64.8843 105.387Z" fill="#41C2F1"/>
<path d="M102.012 43.9636L110.808 39.1562L110.807 88.1204L101.302 82.4801L102.012 43.9636Z" fill="#8DDAF6"/>
<mask id="mask0_742_67" style="mask-type:luminance" maskUnits="userSpaceOnUse" x="99" y="39" width="14" height="25">
<path d="M112.779 39.1562H99.8076V63.059H112.779V39.1562Z" fill="white"/>
</mask>
<g mask="url(#mask0_742_67)">
<path d="M102.019 43.9831L110.834 39.1562L110.833 63.7378V88.3194L101.307 82.6562L102.019 43.9831Z" fill="#A0E0F8"/>
</g>
<path d="M30.4589 82.48L20.9802 87.9578L21.479 39.6541L29.9602 44.6339L30.4589 82.48Z" fill="#41C2F1"/>
<mask id="mask1_742_67" style="mask-type:luminance" maskUnits="userSpaceOnUse" x="19" y="39" width="12" height="25">
<path d="M30.9577 39.1562H19.9819V63.059H30.9577V39.1562Z" fill="white"/>
</mask>
<g mask="url(#mask1_742_67)">
<path d="M30.4818 82.6562L20.9822 88.1562L21.4821 39.6561L29.982 44.6562L30.4818 82.6562Z" fill="#54C8F2"/>
</g>
<path d="M34.9492 44.2612L65.881 25.2128L96.8128 44.2612V81.3554L65.881 100.905L34.9492 81.3554V44.2612Z" fill="#70D1F4"/>
</g>
<path d="M65.9999 82.2676C62.2313 81.3187 59.1204 79.1562 56.6672 75.7801C54.213 72.4051 52.9858 68.6571 52.9858 64.5359V54.6127L65.9999 49.7324L79.014 54.6127V64.5359C79.014 68.6571 77.7874 72.4051 75.3343 75.7801C72.88 79.1562 69.7686 81.3187 65.9999 82.2676ZM65.9999 78.8514C68.6299 78.0381 70.826 76.4319 72.5883 74.033C74.3506 71.633 75.3809 68.9553 75.6792 66H65.9999V53.1893L56.2394 56.8495V65.268C56.2394 65.4578 56.2665 65.7018 56.3207 66H65.9999V78.8514Z" fill="black"/>
<defs>
<filter id="filter0_d_742_67" x="8.99121" y="4.28973" width="113.781" height="127.538" filterUnits="userSpaceOnUse" color-interpolation-filters="sRGB">
<feFlood flood-opacity="0" result="BackgroundImageFix"/>
<feColorMatrix in="SourceAlpha" type="matrix" values="0 0 0 0 0 0 0 0 0 0 0 0 0 0 0 0 0 0 127 0" result="hardAlpha"/>
<feOffset dy="5"/>
<feGaussianBlur stdDeviation="3.5"/>
<feComposite in2="hardAlpha" operator="out"/>
<feColorMatrix type="matrix" values="0 0 0 0 0 0 0 0 0 0 0 0 0 0 0 0 0 0 0.25 0"/>
<feBlend mode="normal" in2="BackgroundImageFix" result="effect1_dropShadow_742_67"/>
<feBlend mode="normal" in="SourceGraphic" in2="effect1_dropShadow_742_67" result="shape"/>
</filter>
</defs>
</svg>
