<svg width="132" height="132" viewBox="0 0 132 132" fill="none" xmlns="http://www.w3.org/2000/svg">
<g filter="url(#filter0_d_742_592)">
<path d="M96.671 44.7348V81.3832L65.8817 100.532L35.0925 81.3832V44.7348L65.8817 25.5862L96.671 44.7348ZM68.4475 20.9503C67.6674 20.4804 66.7825 20.2331 65.8817 20.2331C64.981 20.2331 64.0961 20.4804 63.316 20.9503L32.5267 40.0989C31.7466 40.5687 31.0989 41.2445 30.6485 42.0583C30.1981 42.872 29.961 43.7951 29.9609 44.7348V81.3832C29.961 82.3229 30.1981 83.246 30.6485 84.0597C31.0989 84.8735 31.7466 85.5493 32.5267 86.0191L63.316 105.168C64.0961 105.638 64.981 105.885 65.8817 105.885C66.7825 105.885 67.6674 105.638 68.4475 105.168L99.2368 86.0191C100.017 85.5493 100.665 84.8735 101.115 84.0597C101.565 83.246 101.803 82.3229 101.803 81.3832V44.7348C101.803 43.7951 101.565 42.872 101.115 42.0583C100.665 41.2445 100.017 40.5687 99.2368 40.0989L68.4475 20.9503Z" fill="black"/>
<path d="M29.9609 42.642L65.8817 19.2371L66.8795 63.059H29.9609V42.642Z" fill="#B5702C"/>
<path d="M28.9629 63.059H65.8815V106.174L28.9629 83.9739V63.059Z" fill="#A46628"/>
<path d="M65.8818 19.735L102.302 42.1439L101.803 63.5569L66.8801 63.0589L65.8818 19.735Z" fill="#D7955B"/>
<path d="M65.8818 63.059L101.803 62.063L101.304 83.9739L65.8818 106.131V63.059Z" fill="#D38F4A"/>
<path d="M15.9912 37.0523L65.8812 6.28973V63.059H15.9912V37.0523Z" fill="#B8B8B8"/>
<path d="M15.9912 63.059H65.8812V119.828L15.9912 90.5978V63.059Z" fill="#ADADAD"/>
<path d="M65.8809 6.28973L115.771 35.4279V63.059H65.8809V6.28973Z" fill="#E0E0E0"/>
<path d="M65.8809 63.059H115.771L115.076 91.2578L65.8809 119.828V63.059Z" fill="#D6D6D6"/>
<path d="M30.4587 42.642L21.4785 37.6622L64.8828 12.2655V20.3101L30.4587 42.642Z" fill="#ADADAD"/>
<path d="M100.3 84.1167L109.285 88.9537L66.8787 114.848V105.387L100.3 84.1167Z" fill="#CCCCCC"/>
<path d="M66.8796 20.3432V12.2654L110.134 37.8998L101.304 42.1439L66.8796 20.3432Z" fill="#D6D6D6"/>
<path d="M64.8838 105.387L64.8839 114.783L21.9785 89.4821L30.9586 84.4719L64.8838 105.387Z" fill="#A3A3A3"/>
<path d="M102.012 43.9636L110.808 39.1562L110.807 88.1204L101.302 82.4801L102.012 43.9636Z" fill="#CCCCCC"/>
<mask id="mask0_742_592" style="mask-type:luminance" maskUnits="userSpaceOnUse" x="99" y="39" width="14" height="25">
<path d="M112.778 39.1562H99.8066V63.059H112.778V39.1562Z" fill="white"/>
</mask>
<g mask="url(#mask0_742_592)">
<path d="M102.018 43.9831L110.833 39.1562L110.832 63.7378V88.3194L101.306 82.6562L102.018 43.9831Z" fill="#D6D6D6"/>
</g>
<path d="M30.4589 82.48L20.9802 87.9578L21.479 39.6541L29.9602 44.6339L30.4589 82.48Z" fill="#A3A3A3"/>
<mask id="mask1_742_592" style="mask-type:luminance" maskUnits="userSpaceOnUse" x="19" y="39" width="12" height="25">
<path d="M30.9582 39.1562H19.9824V63.059H30.9582V39.1562Z" fill="white"/>
</mask>
<g mask="url(#mask1_742_592)">
<path d="M30.4823 82.6562L20.9827 88.1562L21.4826 39.6561L29.9825 44.6562L30.4823 82.6562Z" fill="#ADADAD"/>
</g>
<path d="M34.9492 44.2612L65.881 25.2128L96.8128 44.2612V81.3554L65.881 100.905L34.9492 81.3554V44.2612Z" fill="#C0C0C0"/>
</g>
<path d="M65.9999 80.2676C62.2313 79.3187 59.1204 77.1562 56.6672 73.7801C54.213 70.4051 52.9858 66.6571 52.9858 62.5359V52.6127L65.9999 47.7324L79.014 52.6127V62.5359C79.014 66.6571 77.7874 70.4051 75.3343 73.7801C72.88 77.1562 69.7686 79.3187 65.9999 80.2676ZM65.9999 76.8514C68.6299 76.0381 70.826 74.4319 72.5883 72.033C74.3506 69.633 75.3809 66.9553 75.6792 64H65.9999V51.1893L56.2394 54.8495V63.268C56.2394 63.4578 56.2665 63.7018 56.3207 64H65.9999V76.8514Z" fill="black"/>
<defs>
<filter id="filter0_d_742_592" x="8.99121" y="4.28973" width="113.78" height="127.538" filterUnits="userSpaceOnUse" color-interpolation-filters="sRGB">
<feFlood flood-opacity="0" result="BackgroundImageFix"/>
<feColorMatrix in="SourceAlpha" type="matrix" values="0 0 0 0 0 0 0 0 0 0 0 0 0 0 0 0 0 0 127 0" result="hardAlpha"/>
<feOffset dy="5"/>
<feGaussianBlur stdDeviation="3.5"/>
<feComposite in2="hardAlpha" operator="out"/>
<feColorMatrix type="matrix" values="0 0 0 0 0 0 0 0 0 0 0 0 0 0 0 0 0 0 0.25 0"/>
<feBlend mode="normal" in2="BackgroundImageFix" result="effect1_dropShadow_742_592"/>
<feBlend mode="normal" in="SourceGraphic" in2="effect1_dropShadow_742_592" result="shape"/>
</filter>
</defs>
</svg>
