<svg width="132" height="132" viewBox="0 0 132 132" fill="none" xmlns="http://www.w3.org/2000/svg">
<g filter="url(#filter0_d_742_557)">
<path d="M96.671 44.7348V81.3832L65.8817 100.532L35.0925 81.3832V44.7348L65.8817 25.5862L96.671 44.7348ZM68.4475 20.9503C67.6674 20.4804 66.7825 20.2331 65.8817 20.2331C64.981 20.2331 64.0961 20.4804 63.316 20.9503L32.5267 40.0989C31.7466 40.5687 31.0989 41.2445 30.6485 42.0583C30.1981 42.872 29.961 43.7951 29.9609 44.7348V81.3832C29.961 82.3229 30.1981 83.246 30.6485 84.0597C31.0989 84.8735 31.7466 85.5493 32.5267 86.0191L63.316 105.168C64.0961 105.638 64.981 105.885 65.8817 105.885C66.7825 105.885 67.6674 105.638 68.4475 105.168L99.2368 86.0191C100.017 85.5493 100.665 84.8735 101.115 84.0597C101.565 83.246 101.803 82.3229 101.803 81.3832V44.7348C101.803 43.7951 101.565 42.872 101.115 42.0583C100.665 41.2445 100.017 40.5687 99.2368 40.0989L68.4475 20.9503Z" fill="black"/>
<path d="M29.9609 42.642L65.8817 19.2371L66.8795 63.059H29.9609V42.642Z" fill="#B5702C"/>
<path d="M28.9629 63.059H65.8815V106.174L28.9629 83.9739V63.059Z" fill="#A46628"/>
<path d="M65.8818 19.735L102.302 42.1439L101.803 63.5569L66.8801 63.0589L65.8818 19.735Z" fill="#D7955B"/>
<path d="M65.8818 63.059L101.803 62.063L101.304 83.9739L65.8818 106.131V63.059Z" fill="#D38F4A"/>
<path d="M15.9912 37.0523L65.8812 6.28973V63.059H15.9912V37.0523Z" fill="#B8B8B8"/>
<path d="M15.9912 63.059H65.8812V119.828L15.9912 90.5978V63.059Z" fill="#ADADAD"/>
<path d="M65.8809 6.28973L115.771 35.4279V63.059H65.8809V6.28973Z" fill="#E0E0E0"/>
<path d="M65.8809 63.059H115.771L115.076 91.2578L65.8809 119.828V63.059Z" fill="#D6D6D6"/>
<path d="M30.4587 42.642L21.4785 37.6622L64.8828 12.2655V20.3101L30.4587 42.642Z" fill="#ADADAD"/>
<path d="M100.3 84.1167L109.285 88.9537L66.8787 114.848V105.387L100.3 84.1167Z" fill="#CCCCCC"/>
<path d="M66.8796 20.3432V12.2654L110.134 37.8998L101.304 42.1439L66.8796 20.3432Z" fill="#D6D6D6"/>
<path d="M64.8838 105.387L64.8839 114.783L21.9785 89.4821L30.9586 84.4719L64.8838 105.387Z" fill="#A3A3A3"/>
<path d="M102.012 43.9636L110.808 39.1562L110.807 88.1204L101.302 82.4801L102.012 43.9636Z" fill="#CCCCCC"/>
<mask id="mask0_742_557" style="mask-type:luminance" maskUnits="userSpaceOnUse" x="99" y="39" width="14" height="25">
<path d="M112.778 39.1562H99.8066V63.059H112.778V39.1562Z" fill="white"/>
</mask>
<g mask="url(#mask0_742_557)">
<path d="M102.018 43.9831L110.833 39.1562L110.832 63.7378V88.3194L101.306 82.6562L102.018 43.9831Z" fill="#D6D6D6"/>
</g>
<path d="M30.4589 82.48L20.9802 87.9578L21.479 39.6541L29.9602 44.6339L30.4589 82.48Z" fill="#A3A3A3"/>
<mask id="mask1_742_557" style="mask-type:luminance" maskUnits="userSpaceOnUse" x="19" y="39" width="12" height="25">
<path d="M30.9582 39.1562H19.9824V63.059H30.9582V39.1562Z" fill="white"/>
</mask>
<g mask="url(#mask1_742_557)">
<path d="M30.4823 82.6562L20.9827 88.1562L21.4826 39.6561L29.9825 44.6562L30.4823 82.6562Z" fill="#ADADAD"/>
</g>
<path d="M34.9492 44.2612L65.881 25.2128L96.8128 44.2612V81.3554L65.881 100.905L34.9492 81.3554V44.2612Z" fill="#C0C0C0"/>
</g>
<path d="M73.0925 67.2536C73.2226 66.1799 73.3202 65.1062 73.3202 64C73.3202 62.8938 73.2226 61.8202 73.0925 60.7465H78.5909C78.8512 61.7876 79.0139 62.8776 79.0139 64C79.0139 65.1225 78.8512 66.2124 78.5909 67.2536M70.2131 76.2983C71.1892 74.4926 71.9375 72.5405 72.458 70.5071H77.257C75.6809 73.221 73.1805 75.2767 70.2131 76.2983M69.8064 67.2536H62.1932C62.0305 66.1799 61.9329 65.1062 61.9329 64C61.9329 62.8938 62.0305 61.8039 62.1932 60.7465H69.8064C69.9528 61.8039 70.0667 62.8938 70.0667 64C70.0667 65.1062 69.9528 66.1799 69.8064 67.2536ZM65.9998 76.949C64.6496 74.9969 63.5596 72.8333 62.8927 70.5071H69.1069C68.4399 72.8333 67.35 74.9969 65.9998 76.949ZM59.4927 57.493H54.7426C56.3024 54.7718 58.801 52.7127 61.7702 51.7017C60.7941 53.5074 60.0621 55.4595 59.4927 57.493ZM54.7426 70.5071H59.4927C60.0621 72.5405 60.7941 74.4926 61.7702 76.2983C58.8073 75.2762 56.3122 73.2201 54.7426 70.5071M53.4087 67.2536C53.1484 66.2124 52.9857 65.1225 52.9857 64C52.9857 62.8776 53.1484 61.7876 53.4087 60.7465H58.9071C58.777 61.8202 58.6794 62.8938 58.6794 64C58.6794 65.1062 58.777 66.1799 58.9071 67.2536M65.9998 51.0347C67.35 52.9869 68.4399 55.1667 69.1069 57.493H62.8927C63.5596 55.1667 64.6496 52.9869 65.9998 51.0347M77.257 57.493H72.458C71.9489 55.4782 71.195 53.5333 70.2131 51.7017C73.2063 52.7266 75.6953 54.7926 77.257 57.493ZM65.9998 47.7324C57.0038 47.7324 49.7322 55.0528 49.7322 64C49.7322 68.3145 51.4461 72.4522 54.4968 75.503C56.0074 77.0136 57.8008 78.2118 59.7744 79.0293C61.7481 79.8469 63.8635 80.2676 65.9998 80.2676C70.3142 80.2676 74.452 78.5537 77.5027 75.503C80.5535 72.4522 82.2674 68.3145 82.2674 64C82.2674 61.8637 81.8466 59.7484 81.0291 57.7747C80.2116 55.801 79.0133 54.0077 77.5027 52.4971C75.9921 50.9865 74.1988 49.7882 72.2251 48.9707C70.2515 48.1532 68.1361 47.7324 65.9998 47.7324V47.7324Z" fill="black"/>
<defs>
<filter id="filter0_d_742_557" x="8.99121" y="4.28973" width="113.78" height="127.538" filterUnits="userSpaceOnUse" color-interpolation-filters="sRGB">
<feFlood flood-opacity="0" result="BackgroundImageFix"/>
<feColorMatrix in="SourceAlpha" type="matrix" values="0 0 0 0 0 0 0 0 0 0 0 0 0 0 0 0 0 0 127 0" result="hardAlpha"/>
<feOffset dy="5"/>
<feGaussianBlur stdDeviation="3.5"/>
<feComposite in2="hardAlpha" operator="out"/>
<feColorMatrix type="matrix" values="0 0 0 0 0 0 0 0 0 0 0 0 0 0 0 0 0 0 0.25 0"/>
<feBlend mode="normal" in2="BackgroundImageFix" result="effect1_dropShadow_742_557"/>
<feBlend mode="normal" in="SourceGraphic" in2="effect1_dropShadow_742_557" result="shape"/>
</filter>
</defs>
</svg>
